<?xml version="1.0" encoding="utf-8"?>
<!-- Generator: Adobe Illustrator 21.0.2, SVG Export Plug-In . SVG Version: 6.00 Build 0)  -->
<svg version="1.1" id="Layer_1" xmlns="http://www.w3.org/2000/svg" xmlns:xlink="http://www.w3.org/1999/xlink" x="0px" y="0px"
	 viewBox="0 0 100 50" style="enable-background:new 0 0 100 50;" xml:space="preserve">
<style type="text/css">
	.st0{fill:url(#SVGID_1_);}
	.st1{fill:#FFFFFF;}
</style>
<g>
	
		<radialGradient id="SVGID_1_" cx="-120.6787" cy="207.8282" r="64.5642" gradientTransform="matrix(1 0 0 -0.7036 149.0522 160.5775)" gradientUnits="userSpaceOnUse">
		<stop  offset="0" style="stop-color:#9CD3F3"/>
		<stop  offset="7.110000e-02" style="stop-color:#98D1F3"/>
		<stop  offset="0.1575" style="stop-color:#8ACDF2"/>
		<stop  offset="0.2516" style="stop-color:#70C4EE"/>
		<stop  offset="0.3514" style="stop-color:#4FBAE9"/>
		<stop  offset="0.4546" style="stop-color:#28ACE2"/>
		<stop  offset="0.5" style="stop-color:#14A5DE"/>
		<stop  offset="1" style="stop-color:#2E77BB"/>
	</radialGradient>
	<path class="st0" d="M85.7,8.4H16.1v33.9h69.6V34c0.3-0.3,0.4-0.6,0.4-1.1c0-0.5-0.1-0.8-0.4-1.1"/>
	<path class="st1" d="M22.4,18.6L21,15.4l-1.3,3.3 M51.9,17.3c-0.3,0.2-0.6,0.2-1,0.2h-2.4v-1.8h2.4c0.3,0,0.7,0,0.9,0.1
		c0.3,0.1,0.4,0.4,0.4,0.7C52.3,16.9,52.1,17.2,51.9,17.3z M68.8,18.6l-1.4-3.3l-1.3,3.3H68.8z M37.2,22.2h-2l0-6.4l-2.8,6.4h-1.7
		l-2.8-6.4v6.4h-4l-0.8-1.8H19l-0.8,1.8h-2.1l3.5-8.2h2.9l3.3,7.7V14H29l2.6,5.6L34,14h3.3L37.2,22.2L37.2,22.2z M45.2,22.2h-6.5V14
		h6.5v1.7h-4.6v1.5h4.5v1.7h-4.5v1.6h4.6V22.2z M54.4,16.2c0,1.3-0.9,2-1.4,2.2c0.4,0.2,0.8,0.5,1,0.7c0.3,0.4,0.3,0.8,0.3,1.5v1.6
		h-2l0-1c0-0.5,0-1.2-0.3-1.6c-0.3-0.3-0.7-0.4-1.4-0.4h-2.1v3h-2V14h4.5c1,0,1.7,0,2.4,0.4C54,14.8,54.4,15.3,54.4,16.2z
		 M57.5,22.2h-2V14h2V22.2z M80.7,22.2h-2.8L74.2,16v6.1h-4l-0.8-1.8h-4.1l-0.7,1.8h-2.3c-1,0-2.2-0.2-2.8-0.9c-0.7-0.7-1-1.6-1-3.1
		c0-1.2,0.2-2.3,1.1-3.2c0.6-0.7,1.6-1,3-1h1.9v1.8h-1.9c-0.7,0-1.1,0.1-1.5,0.5c-0.3,0.3-0.6,1-0.6,1.9c0,0.9,0.2,1.5,0.5,1.9
		c0.3,0.3,0.8,0.4,1.4,0.4h0.9L66,14H69l3.3,7.7V14h3l3.4,5.7V14h2V22.2L80.7,22.2z M16.1,23.8h3.3l0.8-1.8h1.7l0.8,1.8h6.6v-1.4
		l0.6,1.4h3.4l0.6-1.4v1.4h16.3l0-3h0.3c0.2,0,0.3,0,0.3,0.4v2.6h8.5v-0.7c0.7,0.4,1.7,0.7,3.1,0.7h3.6l0.8-1.8h1.7l0.7,1.8h6.9
		v-1.7l1,1.7h5.5V12.4H77v1.3l-0.8-1.3h-5.6v1.3L70,12.4h-7.5c-1.3,0-2.4,0.2-3.3,0.7v-0.7H54V13c-0.6-0.5-1.3-0.7-2.2-0.7h-19
		l-1.3,2.9l-1.3-2.9h-6v1.3l-0.7-1.3h-5.1l-2.4,5.4L16.1,23.8L16.1,23.8z"/>
	<path class="st1" d="M85.7,29.8h-3.6c-0.4,0-0.6,0-0.8,0.1c-0.2,0.1-0.3,0.3-0.3,0.6c0,0.3,0.2,0.5,0.4,0.6
		c0.2,0.1,0.4,0.1,0.8,0.1l1.1,0c1.1,0,1.8,0.2,2.2,0.7c0.1,0.1,0.1,0.1,0.2,0.2 M85.7,35.2c-0.5,0.7-1.4,1-2.7,1h-3.8v-1.8H83
		c0.4,0,0.6,0,0.8-0.2c0.1-0.1,0.2-0.3,0.2-0.5c0-0.2-0.1-0.4-0.2-0.5c-0.1-0.1-0.3-0.2-0.7-0.2C81.3,33,79,33.1,79,30.5
		c0-1.2,0.8-2.4,2.8-2.4h3.9v-1.6h-3.6c-1.1,0-1.9,0.3-2.4,0.7v-0.7h-5.4c-0.9,0-1.9,0.2-2.3,0.7v-0.7h-9.6v0.7
		c-0.8-0.5-2-0.7-2.6-0.7h-6.3v0.7c-0.6-0.6-1.9-0.7-2.8-0.7h-7.1L42,28.2l-1.5-1.7H29.9v11.4h10.3l1.7-1.8l1.6,1.8l6.4,0v-2.7h0.6
		c0.8,0,1.8,0,2.7-0.4v3.1h5.3v-3h0.3c0.3,0,0.4,0,0.4,0.3v2.6h16c1,0,2.1-0.3,2.7-0.7v0.7h5.1c1.1,0,2.1-0.1,2.9-0.5V35.2
		L85.7,35.2z M77.9,31.9c0.4,0.4,0.6,0.9,0.6,1.7c0,1.8-1.1,2.6-3.1,2.6h-3.8v-1.8h3.8c0.4,0,0.6,0,0.8-0.2c0.1-0.1,0.2-0.3,0.2-0.5
		c0-0.2-0.1-0.4-0.2-0.5c-0.1-0.1-0.4-0.2-0.7-0.2c-1.8-0.1-4.1,0.1-4.1-2.5c0-1.2,0.7-2.4,2.8-2.4h3.9v1.7h-3.6
		c-0.4,0-0.6,0-0.8,0.1c-0.2,0.1-0.3,0.3-0.3,0.6c0,0.3,0.2,0.5,0.4,0.6c0.2,0.1,0.4,0.1,0.8,0.1l1.1,0
		C76.7,31.3,77.4,31.5,77.9,31.9z M60.2,31.4c-0.3,0.2-0.6,0.2-1,0.2h-2.4v-1.8h2.4c0.3,0,0.7,0,0.9,0.1c0.3,0.1,0.4,0.4,0.4,0.7
		C60.6,31,60.5,31.3,60.2,31.4z M61.4,32.5c0.4,0.2,0.8,0.4,1,0.7c0.3,0.4,0.3,0.8,0.3,1.5v1.6h-2v-1c0-0.5,0-1.2-0.3-1.6
		c-0.3-0.3-0.7-0.4-1.4-0.4h-2.1v3h-2v-8.2h4.5c1,0,1.7,0,2.4,0.4c0.6,0.4,1,0.9,1,1.8C62.8,31.6,61.9,32.3,61.4,32.5z M63.9,28.1
		h6.5v1.7h-4.6v1.5h4.5v1.7h-4.5v1.6l4.6,0v1.7h-6.5V28.1z M50.7,31.9h-2.5v-2.1h2.6c0.7,0,1.2,0.3,1.2,1
		C51.9,31.5,51.4,31.9,50.7,31.9z M46.2,35.5l-3-3.3l3-3.2V35.5z M38.5,34.6h-4.8v-1.6h4.3v-1.7h-4.3v-1.5h4.9l2.1,2.4L38.5,34.6z
		 M54,30.8c0,2.3-1.7,2.7-3.4,2.7h-2.4v2.7h-3.8l-2.4-2.7l-2.5,2.7h-7.7v-8.2h7.9l2.4,2.7l2.5-2.7h6.2C52.3,28.1,54,28.5,54,30.8z"
		/>
</g>
</svg>
