<?xml version="1.0" encoding="utf-8"?>
<!-- Generator: Adobe Illustrator 21.0.2, SVG Export Plug-In . SVG Version: 6.00 Build 0)  -->
<svg version="1.1" id="Layer_1" xmlns="http://www.w3.org/2000/svg" xmlns:xlink="http://www.w3.org/1999/xlink" x="0px" y="0px"
	 viewBox="0 0 100 50" style="enable-background:new 0 0 100 50;" xml:space="preserve">
<style type="text/css">
	.st0{fill:#27AAE2;}
	.st1{fill:#15ADE4;}
</style>
<g>
	<path id="path21" class="st0" d="M99.7,21.5c-0.5-1-1.7-1.7-3-1.7c-1.1,0-2.1,0.5-2.1,1.6c0,1,1.2,1.6,2.5,2.5
		c1.4,0.9,2.8,2,2.8,3.8c0,2.4-2.4,3.9-5.1,3.9c-1.1,0-2.3-0.2-3.6-0.7l0.2-3.2c0.6,1.3,1.8,2.3,3.6,2.3c1.4,0,2.4-0.6,2.4-1.8
		c0-1-0.8-1.6-1.8-2.2c-2.1-1.3-3.4-2.3-3.4-4.1c0-2.8,2.3-3.7,4.7-3.7c1.4,0,2.3,0.3,3.1,0.3L99.7,21.5 M88,24.3
		c-0.3,0.5-0.7,1.2-0.9,1.7c-0.2,0.9-0.3,2.2-0.3,3.6c0,0.6,0.1,1.4,0.4,1.6h-3.5c0.6-0.6,0.9-4.2,0.8-5.3c-0.5-1.6-1.1-3.2-2.1-5.1
		c-0.6-1.2-1.3-2.3-1.8-2.5c0.8-0.1,1.8-0.1,2.3-0.1c0.9,0,1.1,0.1,1.6,1.3c0.8,1.9,1.5,3.3,1.8,4.4c0.9-1.4,1.5-2.3,2.3-3.6
		c0.2-0.3,0.4-0.7,0.4-1.1c0-0.3-0.1-0.6-0.2-0.8h3.5C91.7,18.5,88.7,23.3,88,24.3 M75.9,21.4l-2.1,4.5h3.4L75.9,21.4 M80,31.4
		c-1.1,0-1.2,0-2.1-3.1l-0.3-1.1c-0.5,0.3-1.5,0.4-3,0.4H73l-0.3,0.6c-0.4,0.8-0.9,1.8-0.9,2.6c0,0.2,0,0.4,0.1,0.6h-9.1
		c0.5-0.6,0.7-2.5,0.9-5.9l0.1-0.8c0.1-2,0.2-3.5,0.2-4.5c0-0.9-0.1-1.4-0.3-1.7h3.5c-0.5,0.4-0.7,2.5-0.9,5.9l-0.1,0.8
		c-0.1,1.3-0.3,2.6-0.3,3.8c0,0.6,0.2,0.7,0.8,0.7c2.1,0,2.7-0.1,3.6-0.7c0.6-1.1,1.3-2.5,2-3.9l0.9-1.9c0.8-1.8,1.7-3.6,1.7-4
		c0-0.3-0.1-0.5-0.2-0.7h2.8c0,0,1.1,4.2,1.4,5.1l0.5,2c0.9,3.4,1.6,5.1,2.4,5.7C81.2,31.4,80.3,31.4,80,31.4 M57.2,31.5
		c-3.3,0-5.3-2.7-5.3-5.8c0-4.3,2.3-7.6,6.8-7.6c1.4,0,2,0.3,3.2,0.3l-0.3,3.3c-0.6-1.2-1.7-2-3.1-2c-2.7,0-3.9,3-3.9,5.5
		c0,2.8,1.6,4.3,3.6,4.3c1.1,0,2.1-0.3,3.8-1.5C61.3,30.3,59.8,31.5,57.2,31.5 M45.7,20c-0.3,0-0.7,0-1,0c-0.1,0.5-0.2,1.5-0.3,3.1
		l-0.1,0.9c0.2,0,0.4,0.1,0.6,0.1c1.6,0,2.7-1,2.7-2.4C47.6,20.5,46.9,20,45.7,20 M50.3,31.9c-0.9,0-1.2-0.2-1.5-0.6l-3.6-5
		c-0.3-0.4-0.5-0.7-0.9-0.7h-0.1l-0.1,1C44,27.8,44,28.9,44,29.7c0,0.9,0.1,1.4,0.4,1.6h-3.5c0.5-0.5,0.7-2,1-5.9l0.1-0.8
		c0.1-2,0.2-3.4,0.2-4.5c0-0.9-0.1-1.5-0.4-1.7c2,0,4.8,0,4.8,0c1.6,0,3.7,0.3,3.7,2.8c0,2.1-1.4,3.2-3.1,3.7
		c0.2,0.2,0.5,0.5,0.6,0.8l2.6,3.5c1.6,2.2,1.8,2.3,2.4,2.6C52,31.8,51,31.9,50.3,31.9 M34,21.4L32,25.9h3.4L34,21.4 M38.1,31.4
		c-1.1,0-1.2,0-2.1-3.1l-0.3-1.1c-0.5,0.3-1.5,0.4-3,0.4h-1.5l-0.3,0.6C30.6,28.7,30,30,30,30.7c0,0.2,0,0.3,0.1,0.6H27
		c0.9-0.9,2-3,3.6-6.3l0.9-1.9c0.8-1.7,1.7-3.7,1.7-4c0-0.3-0.1-0.5-0.2-0.7h2.8c0,0,0.7,2.8,1.4,5.1l0.5,2c0.9,3.4,1.6,5.1,2.4,5.7
		C39.4,31.4,38.5,31.4,38.1,31.4 M22.2,19.9c-0.3,0-0.6,0-0.9,0c-0.1,0.9-0.2,1.8-0.3,2.7c0,0-0.1,0.8-0.1,0.8h0.3
		c1.6,0,3.1-0.6,3.1-2.1C24.4,20.5,23.7,19.9,22.2,19.9 M21.8,25.1h-0.9L20.7,27c-0.1,0.8-0.1,1.5-0.1,2.4c0,0.1,0.4,0.4,1.2,0.4
		c1.8,0,3-0.9,3-2.4C24.8,25.7,23.5,25.1,21.8,25.1 M22,31.3h-4.5c0.6-0.5,0.7-2.5,1-5.9l0.1-0.8c0.1-2,0.2-3.5,0.2-4.5
		c0-0.9-0.1-1.5-0.4-1.7h5.1c1.2,0,3.6,0.1,3.6,2.6c0,1.7-1.6,2.7-3,3.1c2,0.2,3.5,1.2,3.5,3.2C27.5,29.5,25.4,31.3,22,31.3"/>
	<path id="path4050" class="st1" d="M7.3,16.6c-0.4,0-0.5,0.1-0.7,0.2c-0.1,0-0.1,0-0.2,0c-0.3,0-0.8,0.1-1.2,0.3
		c-0.4,0.2-0.5,0.7-0.3,1c0,0,0.1-0.2,0.6-0.2c0.1,0,0.1,0,0.2,0c0.6,0.1,1,0.4,1,1.2c-0.1,0.8-0.4,1.7-1.6,1.7c0,0-0.2,0-0.3,0
		C4.1,20.8,4,20.4,4,20.4s0.5-0.1,0.5-0.8c0-0.4-0.4-0.8-0.9-1c-0.2-0.1-0.4-0.1-0.6-0.1c-0.6,0-1.4,0.3-1.9,0.9
		c-1.1,1.5-1.2,3.6-0.9,5.6s1.5,3.8,1.6,3.9c0,0,0.1,0.1,0.1,0.1s0,0,0.1,0c0.5-0.5,1.1-1.3,1.3-1.7c0.2,0.2,0.1,0.6,0,1
		c-0.1,0.4-0.4,1-0.5,1.2c-0.1,0.2-0.3,0.4-0.1,0.5c0,0,0.1,0,0.1,0c0.3,0,0.8-0.4,1.5-1.3c0.7-1,1.1-1.8,1.1-1.8
		c0.1,0,0.1,0.1,0.1,0.3c0,0.3-0.3,1.2-0.8,2c-0.5,0.8-0.9,1.4-1.1,1.5c-0.1,0.1,0,0.1,0,0.2c0,0,0.9,0.8,2.2,1.5
		c1.5,0.8,2.2,0.9,2.2,0.9s0.7-0.2,2.2-0.9c1.3-0.7,2.2-1.5,2.2-1.6c0,0,0.1-0.1,0-0.2c-0.1-0.1-0.5-0.6-1.1-1.5
		c-0.5-0.8-0.7-1.8-0.8-2c0-0.3,0.1-0.3,0.1-0.4c0,0,0.4,0.9,1.1,1.8c0.6,0.8,1.2,1.3,1.5,1.3c0,0,0.1,0,0.1,0
		c0.2-0.1,0.1-0.3-0.1-0.5c-0.1-0.2-0.4-0.8-0.5-1.2c-0.1-0.4-0.3-0.8,0-1c0.2,0.5,0.7,1.2,1.3,1.7c0,0,0,0,0.1,0s0.1,0,0.1-0.1
		c0.1-0.1,1.3-1.9,1.6-3.9c0.3-2,0.2-4.1-0.9-5.6c-0.5-0.6-1.2-0.9-1.9-0.9c-0.2,0-0.4,0-0.6,0.1c-0.6,0.2-0.9,0.6-0.9,1
		c0,0.6,0.5,0.8,0.5,0.8s-0.2,0.4-0.8,0.4c-0.1,0-0.2,0-0.3,0c-0.5,0-0.8-0.2-1.2-0.6c-0.3-0.5-0.3-1.5-0.4-1.8S9.1,17.3,8.7,17
		c-0.4-0.3-0.8-0.4-1.3-0.4C7.4,16.6,7.3,16.6,7.3,16.6"/>
</g>
</svg>
