<?xml version="1.0" encoding="utf-8"?>
<!-- Generator: Adobe Illustrator 21.0.2, SVG Export Plug-In . SVG Version: 6.00 Build 0)  -->
<svg version="1.1" id="Layer_1" xmlns="http://www.w3.org/2000/svg" xmlns:xlink="http://www.w3.org/1999/xlink" x="0px" y="0px"
	 viewBox="0 0 100 50" style="enable-background:new 0 0 100 50;" xml:space="preserve">
<style type="text/css">
	.st0{fill:#006C32;}
	.st1{fill:#221E20;}
	.st2{fill:#6D6E70;}
</style>
<g>
	<path class="st0" d="M21.4,29.8c0.8-1.2,1.4-2.2,1.9-3.6h1.6c-0.7,1.8-1.6,3.3-2.8,4.9v2.5h-1.4v-2.4c-1.2-1.7-2.1-3.1-2.8-4.9h1.6
		C20,27.7,20.5,28.6,21.4,29.8"/>
	<path class="st0" d="M35.6,29.2c-0.7-0.2-1.1-0.3-1.3-0.5c-0.3-0.2-0.3-0.4-0.3-0.5c0-0.3,0.2-0.5,0.4-0.6c0.3-0.1,0.6-0.2,0.9-0.2
		c0.5,0,1,0.1,1.6,0.3l0.5-1.1c-0.6-0.3-1.3-0.5-2.1-0.5c-0.7,0-1.4,0.2-1.9,0.5c-0.6,0.4-0.9,0.9-0.9,1.6c0,1.3,1.1,1.8,2.1,2.1
		c0.4,0.2,0.9,0.3,1.2,0.4c0.3,0.2,0.5,0.4,0.5,0.7c0,0.4-0.2,0.6-0.4,0.7c-0.3,0.2-0.7,0.2-1.1,0.2c-1,0-1.7-0.4-2.2-0.7l-0.5,1.1
		c0.6,0.5,1.7,0.8,2.7,0.8c1.6,0,2.8-0.9,2.8-2.2C37.8,30.2,36.8,29.6,35.6,29.2"/>
	<path class="st0" d="M28.1,32.3h-1v-4.8h0.9c1.5,0,2.5,0.8,2.5,2.3C30.4,31.3,29.6,32.3,28.1,32.3 M27.9,26.2h-2.2v7.4H28
		c2.2,0,3.8-1.5,3.8-3.7C31.8,27.7,30.3,26.2,27.9,26.2"/>
	<path class="st0" d="M44.6,32.4h-1.2v-2.1h1.2c1.1,0,1.6,0.3,1.6,1C46.3,32.3,45.3,32.4,44.6,32.4 M43.5,27.3h1.1
		c1,0,1.4,0.2,1.4,0.9s-0.5,1-1.3,1h-1.2V27.3z M46,29.7L46,29.7c0.8-0.3,1.3-0.8,1.3-1.7c0-1.3-1.1-1.8-2.3-1.8h-2.9v7.4h2.7
		c1.4,0,2.8-0.6,2.8-2.1C47.6,30.4,47,29.8,46,29.7"/>
	<polygon class="st0" points="62.1,26.2 60.8,26.2 60.8,31.5 60.8,31.5 57.7,26.2 56,26.2 56,33.6 57.2,33.6 57.2,28.1 57.3,28.1 
		60.4,33.6 62.1,33.6 	"/>
	<polygon class="st0" points="66.4,29.7 69.8,26.2 68,26.2 65,29.5 64.9,29.5 64.9,26.2 63.6,26.2 63.6,33.6 64.9,33.6 64.9,30 
		65,30 68.2,33.6 70.1,33.6 	"/>
	<polygon class="st0" points="5.7,33.6 9.8,33.6 10.3,32.3 7,32.3 7,26.2 5.7,26.2 	"/>
	<polygon class="st0" points="0,33.6 4.1,33.6 4.6,32.3 1.4,32.3 1.4,26.2 0,26.2 	"/>
	<path class="st0" d="M14.2,32.4c-1.5,0-2.3-1.1-2.3-2.5s0.9-2.5,2.3-2.5c1.5,0,2.4,1.1,2.4,2.5C16.6,31.3,15.7,32.4,14.2,32.4
		 M14.3,26.1c-2.3,0-3.7,1.7-3.7,3.8c0,2.1,1.4,3.7,3.7,3.7c2.3,0,3.7-1.7,3.7-3.8C18,27.8,16.5,26.1,14.3,26.1"/>
	<path class="st0" d="M51.5,32c0.5,0,1.1,0,1.5-0.2l0.7,1.8h1.5l-3.2-7.4H51l-3.2,7.4h1.5l0.7-1.8C50.5,31.9,51,32,51.5,32
		 M51.5,30.9c-0.4,0-0.7,0-1.1-0.1l1.1-2.9l1.1,2.9C52.3,30.8,51.9,30.9,51.5,30.9"/>
	<path class="st1" d="M99,25.6c0.5,0.4,1,0.6,1,1.2c0,0.2-0.2,0.4-0.7,0.4c-0.4,0-0.8-0.1-1-0.4c-0.2-0.2,0.1-0.5-0.1-0.7
		c-0.1-0.2-0.3-0.1-0.5-0.2c-0.2-0.1-0.2-0.2-0.3-0.4c-0.1-0.3-0.6-0.8-1.1-1.4c-0.5-0.5-0.9-0.7-1.2-0.7c-0.2,0-0.2,0-0.4,0
		c-0.4,0-0.7,0.4-1.3,0.6c-0.4,0.2-0.6,0.3-0.9,0.3l-0.1,0.1l0.5,0c0.5,0,1.1-0.1,1.6-0.1c0.5,0,0.7,0.4,0.9,0.9
		c0.4,0.9,0.9,2.3,1.6,3.4c0.3,0.5,0.6,0.9,0.6,1.5c0,0.2,0,0.5-0.3,0.5c-0.4,0-1.3-0.4-1.3-0.8c0-0.3,0.3-0.5,0.3-0.8
		c0-0.2-0.3-0.2-0.4-0.4c-0.2-1-0.5-2-1.1-2.6c-0.3-0.3-0.3-0.4-0.6-0.4c-0.2,0-0.3,0-0.4,0.1c-0.8,0.3-1.8,1.2-3.1,1.5
		c-0.5,0.2-0.6-0.1-1.1,0h0c-0.4,0.1-0.7,0.3-1.3,0.5c-0.8,0.2-2.1,0.3-3.2,0.2c-0.8-0.1-1.8-0.3-2.2-0.2c-0.3,0.9-1,2.1-2,2.6
		c-0.5,0.2-0.7,0.6-0.5,1.2c0.2,0.8,0.9,1.3,1.2,2c0.3,0.5,0.9,1.4,1.4,1.7c0.5,0.3,0.9,0.7,0.9,1.1c0,0.2-0.1,0.3-0.2,0.3h-1.1
		c-0.2,0-0.3-0.1-0.3-0.2c-0.2-0.3,0-0.5-0.3-0.8c-0.2-0.2-0.3-0.1-0.5-0.3c-0.3-0.3-0.1-0.5-0.3-0.9c-0.7-1.1-1-1.4-1.6-2.2
		c-0.3-0.4-0.7-0.6-0.7-1.2c0-0.7,0.7-0.8,0.7-1.5c-0.4,0.3-0.9,0.6-1.7,0.7c-0.1,0-0.4,0.2-0.5,0.4c-0.3,0.3-0.4,0.5-0.4,0.9
		c-0.1,0.9-0.3,1.8-0.2,2.8c0.2,0.6,0.3,0.8,0.7,1.1c0.3,0.2,0.7,0.5,0.7,0.9c0,0.1,0,0.3-0.2,0.3H77c-0.1,0-0.2-0.1-0.3-0.2
		c-0.1-0.2,0-0.4-0.1-0.7c-0.1-0.5-0.7-0.5-0.7-1.1c0-0.2,0.1-0.4,0.1-0.7c0-0.8,0.3-2,0-3.5c-0.1-0.9,0.8-0.9,1.3-1.7
		c0.3-0.4,0.2-0.3,0.4-0.6c0.2-0.3,0.1-0.6,0.1-0.8c0-0.3-0.3-0.8-0.1-1.9c0.1-0.5,0.3-1,0.6-1.4c0,0,0-0.1-0.1-0.1
		c-0.5,0-0.5-0.1-0.8-0.1s-0.5,0.3-0.6,0.4c-0.2-0.1-0.2-0.2-0.2-0.3c0-0.2,0-0.3,0.2-0.5c0.1-0.1,0-0.1-0.1-0.1
		c-0.4,0-0.7,0.5-0.8,0.8c-0.2,0-0.2-0.3-0.3-0.3c-0.1,0-0.2,0.2-0.2,0.3c0,1.1,1.8,1.3,1.8,2.7c0,1.6-2,1.3-2,1.9
		c0,0.1,0.1,0.2,0.2,0.3c-0.1,0.2-0.2,0.2-0.4,0.2c-0.4,0-0.8-0.3-0.8-0.8c0-0.9,1.2-0.9,1.2-1.6c0-0.3-0.2-0.4-0.4-0.6
		c-1.1-0.8-1.8-1.6-1.8-3c0-1.4,1-2.5,2.3-2.5c1.9,0,1.9,2.2,3.7,2.4c0.6-0.4,1.4-0.7,2.1-0.7c1.1,0,1.6,0.3,2.8,0.3
		c0.5,0,1.3-0.1,2.2-0.8c0.4-0.2,0.5-0.3,0.8-0.6c0.7-0.6,1.4-1.9,1.4-2.8v0c0-0.3-0.1-0.5-0.2-0.5c-0.4,0-0.8,0.4-1.2,0.8
		c-0.3,0.3,0.1,0.4-0.4,0.7c-0.2,0.1-0.4-0.1-0.7-0.1c-0.5,0-0.7-0.5-0.7-1c0-0.2,0.2-0.3,0.3-0.5c0.2-0.5,0.2-0.6,0.4-1.1
		c0.1-0.3,0.4-0.5,0.4-0.7c0-0.1-0.1-0.1-0.1-0.2c0-0.5,0.6-0.8,0.6-1.2c0-0.3-0.3-0.4-0.4-0.6c-0.1-0.2,0-0.3,0-0.3c0,0,0,0,0.1,0
		c0.2,0,0.3,0.3,0.5,0.4c0-0.3-0.1-0.4-0.1-0.6c0-0.1,0-0.3,0.1-0.3c0.2,0,0.1,0.2,0.3,0.3c0.2,0.1,0.3,0.1,0.5,0.2
		c0.2,0.2,0.4,0.4,0.5,0.4c0.2,0,0.3-0.3,0.2-0.4c0.3,0,0.5,0.2,0.9,0.2c0.5,0,0.7,0.2,0.9,0.2c0.4,0.3,0.4,0.5,0.8,0.5
		c0.2,0,0.3-0.2,0.4-0.2c0.3,0.2,0.3,0.7,0,1.1c0.1,0.4,0.6,0.4,0.9,0.6c0.2,0.2,0.2,0.3,0.4,0.4c0.1,0.1,0.3,0.1,0.4,0
		c0.1,0.5-0.3,0.9-0.8,1c0,0.6,0.7,1,0.9,1.1c-0.2,0.4-0.5,0.5-0.7,0.5c0.1,0.4,0.5,0.9,0.3,1.4c-0.2-0.1-0.5,0-0.5,0.3
		c0,0.3,0.4,0.5,0,0.7c-0.2,0.1-0.2,0.4,0.1,0.6c0.4-0.1,0.9-0.1,1.4-0.1c0.3,0,0.7-0.1,1-0.1c0.5,0,0.8,0.2,1.2,0.6
		C97.2,23.8,98,24.9,99,25.6"/>
	<path class="st2" d="M73.9,22.9c0.2,0,0.6-1.1,1.3-1.1c0.2,0,0.3,0.1,0.3,0.2c0,0.2-0.3,0.3-0.3,0.5c0,0,0,0.1,0.1,0.1
		c0.2,0,0.3-0.4,1.1-0.4c0.2,0,0.4,0,0.5,0.1c0.1,0,0.3,0.1,0.2-0.1c-0.2-0.5-0.8-1-1.6-1s-1.7,0.7-1.8,1.6
		C73.8,22.8,73.8,22.9,73.9,22.9"/>
	<path class="st2" d="M87.9,15.9c-0.2-0.1-0.3-0.2-0.2-0.5c0-0.3,0.1-0.4-0.1-0.4c-0.1,0-0.3,0-0.4,0.2c-0.1,0.2-0.4,0.4-0.4,0.6
		c-0.1,0.2,0.2,0.2,0,0.6c-0.4,0.6-0.4,0.8-0.6,1.2c-0.2,0.5-0.3,0.5-0.4,0.7c-0.1,0.1,0.1,0.2,0.4,0.1c0.3-0.1,0.3,0.2,0.2,0.5
		c-0.1,0.2,0,0.2,0.2,0c0.2-0.2-0.1-0.3,0-0.9c0.1-0.5,0.2-0.8,0.5-1.2c0.3-0.4,0.5-0.7,0.9-0.6C88.2,16.3,88.1,16,87.9,15.9"/>
	<path class="st2" d="M97.3,30.3c0.1,0,0.1-0.1,0.1-0.2c0-0.2-0.1-0.6-0.3-0.7c0,0.4-0.2,0.6-0.2,0.7C96.9,30.2,97.2,30.3,97.3,30.3
		"/>
	<path class="st2" d="M99.4,26.9c0.1,0,0.3,0,0.3-0.2c0-0.2-0.3-0.5-0.6-0.6C99.3,26.4,99.2,26.9,99.4,26.9"/>
	<path class="st2" d="M90.1,22.3c1.9,0.9,1.8,2.5,1.9,2.1c0.1-0.2,0.3-1-0.4-1.7c-0.5-0.6-0.7-0.5-0.5-1c0.8-2,1.4-5.1-1.1-6.1
		c-0.3-0.1-0.5-0.1-0.5-0.1c0,0,0.3,0.1,0.6,0.4c1.7,1.1,1.1,4.1-0.4,5.5C89.3,21.9,89.5,22,90.1,22.3"/>
	<path class="st2" d="M83.6,36.3c0.1,0,0.1-0.2,0-0.3c-0.1-0.2-0.3-0.3-0.5-0.4c0,0.2,0.1,0.7,0.3,0.7L83.6,36.3"/>
	<path class="st2" d="M77.8,36.3c0.1,0,0-0.2,0-0.3c-0.1-0.2-0.4-0.3-0.5-0.4c0,0.2,0.1,0.7,0.3,0.7L77.8,36.3"/>
	<path class="st2" d="M84.8,24.8c1.1-0.1,1.2-0.4,1.4-1.1c0.1-0.4,0.4-0.8,0.6-1c0.2-0.2,0.3-0.3,0.5-0.5c0-0.1,0.1-0.2,0-0.2
		c-0.1,0.1-0.5,0.3-0.6,0.4c-0.7,0.5-1.9,0.8-2.3,0.8c-1,0-1.8-0.3-2.7-0.3c-2.6,0-3.6,2.1-3.5,3.3c0,0.2,0,0.2,0.1,0.2
		c0.2,0,0.4-0.7,1-1.3c1-0.9,2-1.4,3.5-1.4c1.1,0,1.5,0.4,1.5,0.5c0,0.3-0.5,0.3-0.4,0.5C83.9,24.7,84.1,24.9,84.8,24.8"/>
</g>
</svg>
