<?xml version="1.0" encoding="utf-8"?>
<!-- Generator: Adobe Illustrator 21.0.2, SVG Export Plug-In . SVG Version: 6.00 Build 0)  -->
<svg version="1.1" id="Layer_1" xmlns="http://www.w3.org/2000/svg" xmlns:xlink="http://www.w3.org/1999/xlink" x="0px" y="0px"
	 viewBox="0 0 100 50" style="enable-background:new 0 0 100 50;" xml:space="preserve">
<style type="text/css">
	.st0{fill:#E42320;}
</style>
<g>
	<path class="st0" d="M10.2,16.9c0,2.2,3.8,4.7,3.8,7.2c0,0.2,0,0.3-0.1,0.5c3.5,0.7,6,2.5,6,4.5c0,2.7-4.4,4.9-9.9,5
		c0,0-0.1,0-0.1,0C4.4,34,0,31.9,0,29.2c0-2,2.7-3.7,6-4.5c0,1.1,3.7,4.6,3.8,6.1c0,0.1,0,0.2,0,0.3c0,0.1,0,0.1,0,0.2
		c0.8-0.4,0.8-1.7,0.8-1.7c0-3.1-3.6-4.5-3.6-7.5c0-1.2,0.6-2.1,1.1-2.3v0.9c0,2.2,3.9,4.7,3.9,6.7v0.7c0.9-0.3,0.9-2,0.9-2
		c0-2.8-3.6-4.3-3.6-7.5c0-1.2,0.6-2.1,1.1-2.3L10.2,16.9"/>
	<path class="st0" d="M27.8,33.2c-1.1,0-2.2-0.2-3.3-0.5v-3.3H25c0.2,1.7,1.6,3.1,3.1,3.1c1.5,0,2.6-0.8,2.6-2.2
		c0-1.4-1.4-2.1-2.4-2.5L27,27c-1.3-0.6-2.3-1.7-2.3-3.2c0-1.8,1.4-3.4,4-3.4c1.1,0,2.2,0.2,3.2,0.6V24h-0.5
		c-0.3-1.6-1.1-2.8-2.9-2.8c-1.3,0-2.1,0.9-2.1,1.8c0,1.2,0.8,1.7,1.8,2.2l1.4,0.7c1.2,0.6,2.8,1.7,2.8,3.4
		C32.3,31.7,30.7,33.2,27.8,33.2"/>
	<path class="st0" d="M36.6,29.6c-0.6,0.2-1,0.7-1,1.3c0,0.6,0.4,1.1,1.1,1.2c0,0,0.1,0,0.1,0c0.5,0,1.1-0.2,1.5-0.6v-2.6L36.6,29.6
		 M35.9,33.1c-1,0.1-1.9-0.7-2-1.8c0-0.1,0-0.1,0-0.2c0-0.8,0.6-1.5,2-2l2.4-0.9v-0.7c0-1.1-0.5-1.8-1.3-1.8c-0.5,0-1,0.2-1.3,0.7
		c-0.1,0.2-0.1,0.4-0.1,0.6c0,0.2,0.1,0.4,0.2,0.6l-1.1,0.5c-0.2-0.3-0.3-0.6-0.3-1c0-0.1,0-0.1,0-0.2c0.1-0.6,0.6-1,1.4-1.5
		c0.5-0.3,1.2-0.5,1.8-0.5c2.2,0,2.6,1.7,2.6,2.3v3.6c0,0.6,0.1,0.9,0.5,0.9c0.1,0,0.3,0,0.4-0.1l0.4-0.1v0.5l-2.4,0.9
		c-0.3-0.3-0.6-0.7-0.6-1.1C37.7,32.4,36.7,33.1,35.9,33.1L35.9,33.1z"/>
	<path class="st0" d="M41.9,32.9v-0.4l0.6-0.1c0.3,0,0.6-0.3,0.6-0.7v-4.6c0-0.4-0.2-0.6-0.5-0.6c-0.1,0-0.3,0-0.4,0.1l-0.2,0.1
		v-0.5l2.5-1.1h0.4v1.3c0.6-0.8,1.5-1.2,2.5-1.3c1.8,0,2.6,1.3,2.6,2.7v4c0,0.3,0.3,0.6,0.6,0.7l0.6,0.1v0.4h-4.1v-0.4l0.6-0.1
		c0.3,0,0.6-0.3,0.6-0.7v-3.9c0-0.5-0.1-1.7-1.5-1.7c-0.7,0-1.3,0.3-1.8,0.8v4.8c0,0.3,0.3,0.6,0.6,0.7l0.6,0.1v0.4H41.9"/>
	<path class="st0" d="M57,26.1h-2.4v4.3c0,1,0.5,1.5,1.2,1.5c0.4,0,0.8-0.1,1.2-0.3l0.2,0.4l-1.6,1c-0.2,0-0.3,0-0.5,0.1
		c-1.5,0-2.3-0.9-2.3-2.8V26h-1.3v-0.4c1.2-0.5,2.1-1.4,2.7-2.5h0.3v2.2h2.7L57,26.1"/>
	<path class="st0" d="M60.7,29.6c-0.6,0.2-1,0.7-1,1.3c0,0.6,0.4,1.2,1.1,1.2c0,0,0.1,0,0.1,0c0.5,0,1.1-0.2,1.5-0.6v-2.6L60.7,29.6
		 M60,33.1c-1,0.1-1.9-0.7-2-1.8c0-0.1,0-0.1,0-0.2c0-0.8,0.6-1.5,2-2l2.4-0.9v-0.7c0-1.1-0.5-1.8-1.3-1.8c-0.5,0-1,0.2-1.3,0.7
		c-0.1,0.2-0.1,0.4-0.1,0.6c0,0.2,0.1,0.4,0.2,0.6l-1.1,0.5c-0.2-0.3-0.3-0.6-0.3-1c0-0.1,0-0.1,0-0.2c0.1-0.6,0.6-1,1.4-1.5
		c0.5-0.3,1.1-0.5,1.8-0.6c2.2,0,2.6,1.7,2.6,2.3v3.6c0,0.6,0.1,0.9,0.5,0.9c0.1,0,0.3,0,0.4-0.1l0.4-0.1v0.5l-2.4,0.9
		c-0.3-0.3-0.6-0.7-0.6-1.1C61.8,32.4,60.8,33.1,60,33.1L60,33.1z"/>
	<path class="st0" d="M66,32.9v-0.4l0.6-0.1c0.3,0,0.6-0.3,0.6-0.7v-4.6c0-0.4-0.2-0.6-0.5-0.6c-0.1,0-0.3,0-0.4,0.1L66,26.6v-0.5
		l2.5-1.1h0.4v1.3c0.6-0.8,1.5-1.2,2.5-1.3c1.8,0,2.6,1.3,2.6,2.7v4c0,0.3,0.3,0.6,0.6,0.7l0.6,0.1v0.4H71v-0.4l0.6-0.1
		c0.3-0.1,0.6-0.3,0.6-0.7v-3.9c0-0.5-0.1-1.7-1.5-1.7c-0.7,0-1.3,0.3-1.8,0.8v4.8c0,0.3,0.3,0.6,0.6,0.7l0.6,0.1v0.4H66"/>
	<path class="st0" d="M80.4,25.7c-1.3,0-2.5,0.8-2.5,3.1c0,1.9,1,3.1,2.5,3.1c0.6,0,1.3-0.3,1.6-0.8v-4.5
		C81.7,26.1,81,25.7,80.4,25.7 M79.6,33.1c-1.6,0-3.6-1.2-3.6-3.9c0-2.3,1.8-4.2,4.1-4.2c0,0,0,0,0,0c0.6,0,1.2,0.1,1.8,0.3v-4
		c0-0.4-0.2-0.5-0.5-0.5c-0.2,0-0.3,0-0.5,0.1L80.6,21v-0.5l2.7-1.2h0.4v11.5c0,0.7,0.1,1,0.6,1c0.1,0,0.3,0,0.4-0.1l0.4-0.1v0.5
		l-2.4,0.9c-0.4-0.3-0.6-0.7-0.7-1.1C81.4,32.7,80.5,33.1,79.6,33.1L79.6,33.1z"/>
	<path class="st0" d="M91.2,27.7L91.2,27.7c0-1.3-0.7-2-1.6-2c-1,0-1.7,0.6-1.9,2H91.2 M87.6,28.4L87.6,28.4c0,2.4,1.3,3.6,3,3.6
		c0.8,0,1.6-0.3,2.2-0.8v0.7c-0.8,0.8-1.9,1.2-3.1,1.2c-2.7,0-3.9-2-3.9-4c-0.1-2.2,1.7-4.1,3.9-4.1c0,0,0.1,0,0.1,0
		c1.7-0.1,3.2,1.3,3.2,3c0,0.1,0,0.1,0,0.2v0.2H87.6z"/>
	<path class="st0" d="M94.1,32.9v-0.4l0.6-0.1c0.3-0.1,0.6-0.3,0.6-0.7v-4.6c0-0.4-0.2-0.6-0.5-0.6c-0.1,0-0.3,0-0.4,0.1l-0.2,0.1
		v-0.5l2.5-1.1h0.4v1.7c0.6-1.2,1.4-1.7,2.2-1.7c0.7,0,0.9,0.2,0.9,0.2V27h-0.3c-0.1-0.5-0.5-0.8-0.9-0.7c-0.8,0-1.5,0.4-1.7,1.2
		v4.3c0,0.4,0.3,0.6,0.7,0.7l0.8,0.1v0.4H94.1"/>
</g>
</svg>
