<?xml version="1.0" encoding="utf-8"?>
<!-- Generator: Adobe Illustrator 21.0.2, SVG Export Plug-In . SVG Version: 6.00 Build 0)  -->
<svg version="1.1" id="Layer_1" xmlns="http://www.w3.org/2000/svg" xmlns:xlink="http://www.w3.org/1999/xlink" x="0px" y="0px"
	 viewBox="0 0 100 100" style="enable-background:new 0 0 100 100;" xml:space="preserve">
<g>
	<path d="M87.5,80L62.9,55.4c3.3-4.6,5.3-10.2,5.3-16.3c0-0.3,0-0.6-0.1-0.9c0.1-0.3,0.1-0.6,0.1-0.9C68.3,22,55.8,9.5,40.4,9.5
		c-0.3,0-0.5,0-0.8,0.1c-0.3,0-0.5-0.1-0.8-0.1C23.4,9.5,10.9,22,10.9,37.3c0,0.3,0,0.6,0.1,0.9c-0.1,0.3-0.1,0.6-0.1,0.9
		C10.9,54.5,23.4,67,38.8,67c0.3,0,0.5,0,0.8-0.1c0.3,0,0.5,0.1,0.8,0.1c5.2,0,10.1-1.5,14.2-4L79.6,88c1.1,1.1,2.5,1.6,4,1.6
		c1.4,0,2.9-0.5,4-1.6C89.7,85.8,89.7,82.2,87.5,80z M39.6,55.8c-0.3,0-0.5-0.1-0.8-0.1c-9.2,0-16.6-7.5-16.6-16.6
		c0-0.3,0-0.6-0.1-0.9c0.1-0.3,0.1-0.6,0.1-0.9c0-9.2,7.5-16.6,16.6-16.6c0.3,0,0.5,0,0.8-0.1c0.3,0,0.5,0.1,0.8,0.1
		c9.2,0,16.6,7.5,16.6,16.6c0,0.3,0,0.6,0.1,0.9c0,0.3-0.1,0.6-0.1,0.9c0,9.2-7.5,16.6-16.6,16.6C40.1,55.8,39.9,55.8,39.6,55.8z"/>
</g>
</svg>
