<?xml version="1.0" encoding="utf-8"?>
<!-- Generator: Adobe Illustrator 21.0.2, SVG Export Plug-In . SVG Version: 6.00 Build 0)  -->
<svg version="1.1" id="Layer_1" xmlns="http://www.w3.org/2000/svg" xmlns:xlink="http://www.w3.org/1999/xlink" x="0px" y="0px"
	 viewBox="0 0 100 50" style="enable-background:new 0 0 100 50;" xml:space="preserve">
<style type="text/css">
	.st0{fill:#534B99;}
	.st1{fill:#FFFFFF;}
	.st2{fill:#6A737B;}
</style>
<g>
	<g>
		<g>
			<g>
				<circle class="st0" cx="49.9" cy="17.4" r="15.6"/>
			</g>
			<g>
				<path class="st1" d="M45.2,17.4h1.9c0-4.1,3.3-7.5,7.5-7.5V8C49.4,8,45.2,12.2,45.2,17.4z"/>
				<path class="st1" d="M54.6,17.4h-1.9c0,4.1-3.3,7.5-7.5,7.5v1.9C50.4,26.7,54.6,22.5,54.6,17.4z"/>
			</g>
		</g>
	</g>
	<path class="st2" d="M8.9,43.6c-0.2-0.2-0.5-0.3-0.7-0.4c-0.2-0.1-0.5-0.1-0.8-0.1c-0.2,0-0.4,0-0.5,0c-0.2,0-0.3,0.1-0.4,0.2
		c-0.1,0.1-0.2,0.2-0.2,0.2c0,0.1-0.1,0.2-0.1,0.3c0,0.1,0,0.2,0.1,0.3s0.1,0.2,0.2,0.2c0.1,0,0.2,0.1,0.4,0.1
		c0.2,0,0.3,0.1,0.5,0.1l0.4,0c0.2,0,0.4,0.1,0.7,0.2c0.2,0.1,0.4,0.2,0.6,0.3c0.2,0.1,0.3,0.3,0.4,0.4s0.2,0.4,0.2,0.7
		c0,0.3,0,0.5-0.2,0.7S9,47.3,8.8,47.4c-0.2,0.2-0.4,0.2-0.7,0.3c-0.3,0.1-0.6,0.1-0.9,0.1c-0.2,0-0.4,0-0.6,0
		c-0.2,0-0.4-0.1-0.6-0.1c-0.2-0.1-0.4-0.1-0.6-0.2c-0.2-0.1-0.3-0.2-0.5-0.3l0.5-0.7c0.1,0.1,0.2,0.2,0.3,0.2
		c0.1,0.1,0.3,0.1,0.4,0.2c0.2,0,0.3,0.1,0.5,0.1c0.2,0,0.3,0,0.5,0s0.4,0,0.5,0c0.2,0,0.3-0.1,0.4-0.2c0.1-0.1,0.2-0.2,0.3-0.2
		c0.1-0.1,0.1-0.2,0.1-0.3c0-0.2-0.1-0.4-0.3-0.5c-0.2-0.1-0.5-0.2-0.9-0.2l-0.4,0c-0.2,0-0.4-0.1-0.6-0.2C6,45.2,5.9,45.1,5.7,45
		c-0.2-0.1-0.3-0.3-0.4-0.4c-0.1-0.2-0.1-0.4-0.1-0.7c0-0.3,0-0.5,0.2-0.7c0.1-0.2,0.3-0.4,0.5-0.5c0.2-0.2,0.4-0.2,0.7-0.3
		c0.3-0.1,0.6-0.1,0.9-0.1c0.4,0,0.8,0,1.1,0.2c0.3,0.1,0.6,0.2,0.9,0.4L8.9,43.6z M16.5,43.2h-1.8v4.7h-0.9v-4.7H12v-0.9h4.5
		C16.5,42.4,16.5,43.2,16.5,43.2z M23.9,47.9h-1l-0.5-1.4h-2.5l-0.5,1.4h-0.9l2.2-5.6h1.1L23.9,47.9z M20.2,45.7h1.9l-0.9-2.4
		L20.2,45.7z M29.1,42.4c0.7,0,1.1,0.1,1.5,0.4c0.3,0.3,0.5,0.7,0.5,1.2c0,0.2,0,0.4-0.1,0.7c-0.1,0.2-0.2,0.4-0.4,0.5
		c-0.2,0.1-0.4,0.2-0.6,0.3c-0.2,0.1-0.5,0.1-0.8,0.1l1.8,2.3h-1.1l-1.8-2.3h-0.4v2.3h-0.9v-5.6L29.1,42.4L29.1,42.4z M27.7,43.2
		v1.6h1.4c0.4,0,0.6-0.1,0.8-0.2c0.2-0.1,0.2-0.3,0.2-0.6s-0.1-0.4-0.2-0.6c-0.2-0.1-0.4-0.2-0.8-0.2L27.7,43.2L27.7,43.2z
		 M38.2,47.9h-4v-5.6h0.9v4.7h3.1C38.2,47.1,38.2,47.9,38.2,47.9z M42,47.9h-0.9v-5.6H42V47.9z M50.3,47.9h-0.8l-3.1-4v4h-0.9v-5.6
		h0.8l3.1,4v-4h0.9V47.9z M56.5,42.3c0.4,0,0.9,0.1,1.2,0.2c0.4,0.2,0.7,0.4,0.9,0.7L58,43.8c-0.2-0.2-0.4-0.4-0.7-0.5
		c-0.2-0.1-0.5-0.2-0.9-0.2c-0.3,0-0.5,0-0.8,0.2c-0.2,0.1-0.4,0.2-0.6,0.4c-0.2,0.2-0.3,0.4-0.4,0.7c-0.1,0.2-0.2,0.5-0.2,0.8
		s0,0.6,0.2,0.8c0.1,0.2,0.2,0.4,0.4,0.7c0.2,0.2,0.4,0.3,0.6,0.4c0.2,0.1,0.5,0.2,0.8,0.2c0.5,0,0.9-0.1,1.2-0.4
		c0.3-0.2,0.5-0.6,0.5-1.1h-1.5V45h2.5c0,0,0,0.1,0,0.1c0,0,0,0.1,0,0.1c0,0.4-0.1,0.8-0.2,1.1c-0.1,0.4-0.3,0.7-0.5,0.9
		c-0.2,0.3-0.5,0.5-0.9,0.6c-0.3,0.2-0.7,0.2-1.1,0.2c-0.2,0-0.5,0-0.7-0.1c-0.2,0-0.4-0.1-0.7-0.2c-0.2-0.1-0.4-0.2-0.6-0.4
		c-0.2-0.2-0.3-0.4-0.5-0.6c-0.1-0.2-0.2-0.4-0.3-0.7s-0.1-0.5-0.1-0.9c0-0.4,0.1-0.8,0.2-1.1c0.2-0.4,0.4-0.7,0.6-0.9
		c0.2-0.2,0.6-0.4,0.9-0.6C55.6,42.3,56,42.3,56.5,42.3z M68.7,42.4c0.3,0,0.6,0,0.8,0.1c0.2,0,0.5,0.1,0.7,0.2
		c0.2,0.1,0.3,0.3,0.4,0.5s0.2,0.4,0.2,0.7c0,0.2,0,0.3-0.1,0.4s-0.1,0.2-0.2,0.4c-0.1,0.1-0.2,0.2-0.3,0.3S70,45,69.9,45.1
		c0.1,0,0.2,0.1,0.4,0.2c0.1,0.1,0.2,0.2,0.3,0.3c0.1,0.1,0.2,0.2,0.2,0.4c0,0.1,0.1,0.3,0.1,0.4c0,0.3,0,0.5-0.2,0.7
		c-0.1,0.2-0.2,0.4-0.4,0.5c-0.2,0.1-0.4,0.2-0.7,0.3c-0.2,0.1-0.5,0.1-0.9,0.1h-2.3v-5.6L68.7,42.4L68.7,42.4z M67.4,43.2v1.5h1.2
		c0.2,0,0.3,0,0.4,0c0.1,0,0.2,0,0.4-0.1c0.1,0,0.2-0.1,0.2-0.2c0.1-0.1,0.1-0.2,0.1-0.4c0-0.2,0-0.3-0.1-0.4
		c-0.1-0.1-0.2-0.2-0.2-0.2c-0.1,0-0.2-0.1-0.4-0.1c-0.1,0-0.3,0-0.4,0L67.4,43.2L67.4,43.2z M67.4,45.5v1.6h1.3c0.2,0,0.3,0,0.5,0
		c0.2,0,0.3,0,0.4-0.1c0.1,0,0.2-0.1,0.2-0.2c0-0.1,0.1-0.2,0.1-0.4c0-0.2,0-0.3-0.1-0.4s-0.1-0.2-0.2-0.2c-0.1,0-0.2-0.1-0.4-0.1
		c-0.2,0-0.3,0-0.5,0L67.4,45.5L67.4,45.5z M79,47.9h-1l-0.5-1.4h-2.5l-0.5,1.4h-0.9l2.2-5.6h1.1L79,47.9z M75.2,45.7h1.9l-0.9-2.4
		L75.2,45.7z M86.6,47.9h-0.8l-3.1-4v4h-0.9v-5.6h0.8l3.1,4v-4h0.9V47.9z M91.6,45.5H91v2.4h-0.9v-5.6H91v2.3h0.5l2.1-2.3h1.1
		L92.3,45l2.7,2.9h-1.2L91.6,45.5z"/>
</g>
</svg>
