<?xml version="1.0" encoding="utf-8"?>
<!-- Generator: Adobe Illustrator 21.0.2, SVG Export Plug-In . SVG Version: 6.00 Build 0)  -->
<svg version="1.1" id="Layer_1" xmlns="http://www.w3.org/2000/svg" xmlns:xlink="http://www.w3.org/1999/xlink" x="0px" y="0px"
	 viewBox="0 0 100 50" style="enable-background:new 0 0 100 50;" xml:space="preserve">
<style type="text/css">
	.st0{fill:#243775;}
</style>
<g>
	<g id="g421" transform="matrix(0.6605755,0,0,0.6605755,1056.6001,101.86204)">
		<path id="path423" class="st0" d="M-1511.2-132.9v9.3l-7.3-9.3h-2.1v13.4h2.2v-9.8l7.6,9.8h1.7v-13.4
			C-1509-132.9-1511.2-132.9-1511.2-132.9z"/>
	</g>
	<g id="g429">
		<g id="g435" transform="translate(1178.0209,88.8605)">
			<path id="path437" class="st0" d="M-1123.6-54.4c-1.7,0-3-1.4-3-3.1c0-1.7,1.3-3.1,3-3.1c1.7,0,3,1.4,3,3.1
				C-1120.7-55.8-1121.9-54.4-1123.6-54.4 M-1123.6-62.1c-2.5,0-4.5,2-4.5,4.5c0,2.5,2,4.6,4.5,4.6c2.5,0,4.5-2,4.5-4.6
				C-1119.1-60.1-1121.1-62.1-1123.6-62.1"/>
		</g>
	</g>
	<g id="g441">
		<g id="g447" transform="translate(1113.8667,88.8597)">
			<path id="path449" class="st0" d="M-1037.1-67.4c-1.7,0-3-1.4-3-3.1c0-1.7,1.3-3.1,3-3.1c1.7,0,3,1.4,3,3.1
				C-1034.1-68.8-1035.4-67.4-1037.1-67.4 M-1037.1-75c-2.5,0-4.5,2-4.5,4.5c0,2.5,2,4.6,4.5,4.6c2.5,0,4.5-2,4.5-4.6
				S-1034.6-75-1037.1-75"/>
		</g>
	</g>
	<g id="g453">
		<g id="g459" transform="translate(1095.1572,102.5486)">
			<path id="path461" class="st0" d="M-1028.6-88.5l-3.7,4.2v-4.2h-1.5v8.9h1.5v-4.3l3.8,4.2h2l-4.1-4.5l3.9-4.3L-1028.6-88.5
				L-1028.6-88.5z"/>
		</g>
	</g>
	<g id="g465">
		<g id="g471" transform="translate(1145.6705,101.7752)">
			<path id="path473" class="st0" d="M-1108.9-74.4c-0.6,0.4-0.9,1.1-0.9,1.8c0,1.5,1.2,2.2,2.4,2.5c1.1,0.4,1.9,0.6,1.9,1.5
				c0,0.8-0.8,1.2-1.6,1.2c-1,0-1.9-0.4-2.5-0.8l-0.1,0v1.5h0c0.5,0.3,1.5,0.6,2.5,0.6c1.5,0,3-1,3-2.6c0-1.5-1-2.2-2.4-2.7
				c-1.5-0.4-1.9-0.8-1.9-1.3c0-0.8,0.8-1.1,1.6-1.1c0.6,0,1.4,0.1,2.1,0.5h0v-1.4c-0.7-0.3-1.4-0.4-2.2-0.4
				C-1107.7-74.9-1108.4-74.7-1108.9-74.4"/>
		</g>
	</g>
	<g id="g477">
		<g id="g483" transform="translate(1253.6062,88.8605)">
			<path id="path485" class="st0" d="M-1158.2-54.4h-1.3v-6h1.3c1.8,0,3,1.3,3,3C-1155.2-55.8-1156.4-54.4-1158.2-54.4
				 M-1158.2-61.9h-2.8v8.9h2.8c2.5,0,4.6-1.9,4.6-4.4C-1153.6-60-1155.6-61.9-1158.2-61.9"/>
		</g>
	</g>
	<g id="g489">
		<g id="g495" transform="translate(1202.0627,102.5478)">
			<path id="path497" class="st0" d="M-1134.6-75.6v8.9h4.9l0.7-1.5h-4.1v-7.4H-1134.6z"/>
		</g>
	</g>
	<g id="g501">
		<g id="g507" transform="translate(1044.2117,88.7691)">
			<path id="path509" class="st0" d="M-1005.4-67.2h-1.5v-2.5h1.8c0.8,0,1.4,0.5,1.4,1.2C-1003.7-67.7-1004.3-67.2-1005.4-67.2
				 M-1006.9-73.3h1.6c0.7,0,1.3,0.4,1.3,1.1c0,0.7-0.6,1.2-1.3,1.2h-1.7L-1006.9-73.3L-1006.9-73.3z M-1003.5-70.6
				c0.5-0.3,1-0.9,1-1.8c0-1.5-1.2-2.4-2.7-2.4h-3.2v8.9h3.1c1.7,0,3.1-0.8,3.1-2.6C-1002.2-69.3-1002.6-70.1-1003.5-70.6"/>
		</g>
	</g>
	<g id="g513">
		<g id="g519" transform="translate(1242.7509,102.5484)">
			<path id="path521" class="st0" d="M-1153.2-75.6v6.2l-4.8-6.2h-1.3v8.9h1.5v-6.5l5,6.5h1.1v-8.9H-1153.2z"/>
		</g>
	</g>
	<g id="g525">
		<g id="g531" transform="translate(1056.5291,93.2268)">
			<path id="path533" class="st0" d="M-1011-74.1l1.3-3.3l1.3,3.3H-1011z M-1008.9-79.2h-1.5l-3.6,8.9h1.6l0.9-2.4h3.6l1,2.4h1.6
				L-1008.9-79.2z"/>
		</g>
	</g>
	<g id="g537">
		<g id="g543" transform="translate(1218.8624,93.2268)">
			<path id="path545" class="st0" d="M-1142.3-61.2l1.3-3.3l1.3,3.3H-1142.3z M-1140.3-66.2h-1.5l-3.6,8.9h1.6l0.9-2.4h3.6l1,2.4
				h1.6L-1140.3-66.2z"/>
		</g>
	</g>
	<g id="g549">
		<g id="g555" transform="translate(1164.6093,100.4336)">
			<path id="path557" class="st0" d="M-1117.5-72.3c0.6,0,1.4,0.2,2,0.4v-1.5c-0.4-0.1-1.2-0.3-2-0.3c-2.7,0-4.8,1.8-4.8,4.4l0,0
				c0,0,0,0.1,0,0.1s0,0.1,0,0.1c0,0,0,0.1,0,0.1c0,0,0,0.1,0,0.1l0,0c0.1,2.6,2.1,4.4,4.8,4.4c0.8,0,1.5-0.2,2-0.3v-1.5
				c-0.6,0.2-1.3,0.4-2,0.4c-2,0-3.3-1.3-3.3-3.1c0,0,0-0.1,0-0.1c0,0,0-0.1,0-0.1C-1120.8-70.9-1119.5-72.3-1117.5-72.3"/>
		</g>
	</g>
	<g id="g561">
		<g id="g567" transform="translate(1134.9301,99.8654)">
			<path id="path569" class="st0" d="M-1046.8-84.4v-1.5h-5.6v8.9h1.5v-3.8h3.7v-1.5h-3.7v-2.1H-1046.8z"/>
		</g>
	</g>
	<g id="g573">
		<g id="g579" transform="translate(1199.6188,102.5461)">
			<path id="path581" class="st0" d="M-1133.5-75.6h-7.1v1.5h2.7v7.4h1.6v-7.4h2.7L-1133.5-75.6L-1133.5-75.6z"/>
		</g>
	</g>
	<g id="g585">
		<g id="g591" transform="translate(1022.0269,101.0614)">
			<path id="path593" class="st0" d="M-1002.7-84.5c0-1.6-1.3-2.9-2.9-2.9s-2.9,1.3-2.9,2.9c0,1.6,1.3,2.9,2.9,2.9
				C-1003.9-81.7-1002.7-82.9-1002.7-84.5"/>
		</g>
	</g>
	<g id="g597">
		<g id="g603" transform="translate(1022.0269,87.8022)">
			<path id="path605" class="st0" d="M-1002.7-54.4c0-1.6-1.3-2.9-2.9-2.9s-2.9,1.3-2.9,2.9s1.3,2.9,2.9,2.9
				C-1003.9-51.5-1002.7-52.8-1002.7-54.4"/>
		</g>
	</g>
	<g id="g609">
		<g id="g615" transform="translate(1011.3079,94.4106)">
			<path id="path617" class="st0" d="M-1005.6-69.4c0-1.6-1.3-2.9-2.9-2.9s-2.9,1.3-2.9,2.9c0,1.6,1.3,2.9,2.9,2.9
				C-1006.9-66.6-1005.6-67.8-1005.6-69.4"/>
		</g>
	</g>
	<g id="g621">
		<g id="g627" transform="translate(1032.9076,94.411)">
			<path id="path629" class="st0" d="M-999.7-69.4c0-1.6-1.3-2.9-2.9-2.9s-2.9,1.3-2.9,2.9c0,1.6,1.3,2.9,2.9,2.9
				C-1000.9-66.6-999.7-67.8-999.7-69.4"/>
		</g>
	</g>
	<g id="g633">
		<g id="g639" transform="translate(1029.8667,98.3729)">
			<path id="path641" class="st0" d="M-1000.5-78.4v-5.3l-12.8,7.7l-0.1,0l-12.8-7.8v5.3l8.4,5l-8.5,5v5.3l12.8-7.8l12.9,7.8v-5.3
				l-8.5-5L-1000.5-78.4z"/>
		</g>
	</g>
</g>
</svg>
