<?xml version="1.0" encoding="utf-8"?>
<!-- Generator: Adobe Illustrator 21.0.2, SVG Export Plug-In . SVG Version: 6.00 Build 0)  -->
<svg version="1.1"
	 id="svg3624" inkscape:version="0.48.0 r9654" sodipodi:docname="New document 4" xmlns:cc="http://creativecommons.org/ns#" xmlns:dc="http://purl.org/dc/elements/1.1/" xmlns:inkscape="http://www.inkscape.org/namespaces/inkscape" xmlns:rdf="http://www.w3.org/1999/02/22-rdf-syntax-ns#" xmlns:sodipodi="http://sodipodi.sourceforge.net/DTD/sodipodi-0.dtd" xmlns:svg="http://www.w3.org/2000/svg"
	 xmlns="http://www.w3.org/2000/svg" xmlns:xlink="http://www.w3.org/1999/xlink" x="0px" y="0px" viewBox="0 0 100 50"
	 style="enable-background:new 0 0 100 50;" xml:space="preserve">
<style type="text/css">
	.st0{clip-path:url(#SVGID_2_);}
	.st1{fill:#243D72;}
	.st2{fill:#0D9AD2;}
</style>
<g id="layer1" transform="translate(-232.04551,-388.52572)" inkscape:groupmode="layer" inkscape:label="Layer 1">
	<g id="g3223" transform="matrix(1.25,0,0,-1.25,210.68851,1111.6486)">
		<g>
			<defs>
				<rect id="SVGID_1_" x="-1.8" y="533" width="119.6" height="41.1"/>
			</defs>
			<clipPath id="SVGID_2_">
				<use xlink:href="#SVGID_1_"  style="overflow:visible;"/>
			</clipPath>
			<g id="g3225" class="st0">
				<g id="g4048">
					<g id="g3219" transform="translate(21.5586,576.89258)">
						<path id="path3221" inkscape:connector-curvature="0" class="st1" d="M-2.7-14.3h-1.8v0.5h4.2v-0.5h-1.8v-6.5h-0.6L-2.7-14.3z
							"/>
					</g>
					<g id="g3231" transform="translate(28.5079,578.2051)">
						<path id="path3233" inkscape:connector-curvature="0" class="st1" d="M-6.8-15.1h0.6v-2.6h0c0.1,0.5,0.7,0.8,1.3,0.8
							c0.8,0,1.3-0.4,1.3-1.4v-3.9h-0.6v3.8c0,0.7-0.3,1.1-0.9,1.1c-0.7,0-1.1-0.5-1.1-1.3v-3.5h-0.6V-15.1z"/>
					</g>
					<g id="g3235" transform="translate(44.9724,568.2943)">
						<path id="path3237" inkscape:connector-curvature="0" class="st1" d="M-16.6-9.2c0,1.3-0.4,1.8-1.1,1.8
							c-0.7,0-1.1-0.5-1.1-1.8H-16.6z M-16.1-10.6c-0.1-1.1-0.7-1.8-1.7-1.8c-1.1,0-1.7,0.8-1.7,2.7c0,1.8,0.6,2.7,1.8,2.7
							c1.2,0,1.7-0.8,1.7-2.5v-0.2h-2.8v-0.2c0-1.5,0.5-2,1.1-2c0.6,0,1,0.4,1.1,1.4C-16.7-10.6-16.1-10.6-16.1-10.6z"/>
					</g>
					<g id="g3239" transform="translate(58.7622,568.8793)">
						<path id="path3241" inkscape:connector-curvature="0" class="st1" d="M-24.9-9.6c0,0.8-0.2,1.1-0.6,1.1
							c-0.5,0-0.6-0.7-0.6-1.8c0-1.2,0.1-1.7,0.6-1.7c0.5,0,0.6,0.3,0.6,1.3h1.5c0-1.6-0.7-2.3-2.1-2.3c-2,0-2.2,1.4-2.2,3
							c0,1.5,0.4,2.6,2.2,2.6c1.7,0,2.1-0.9,2.1-2.1H-24.9z"/>
					</g>
					<g id="g3243" transform="translate(68.713,571.6006)">
						<path id="path3245" inkscape:connector-curvature="0" class="st1" d="M-30.8-11.2c-0.5,0-0.6-0.5-0.6-1.7
							c0-1.3,0.1-1.8,0.6-1.8c0.5,0,0.6,0.4,0.6,1.7C-30.2-11.6-30.3-11.2-30.8-11.2 M-33-12.9c0,1.6,0.4,2.8,2.2,2.8
							c1.9,0,2.2-1.2,2.2-2.8s-0.4-2.8-2.2-2.8C-32.7-15.7-33-14.5-33-12.9"/>
					</g>
					<g id="g3247" transform="translate(84.7368,571.6006)">
						<path id="path3249" inkscape:connector-curvature="0" class="st1" d="M-40.3-11.2c-0.5,0-0.6-0.5-0.6-1.7
							c0-1.3,0.1-1.8,0.6-1.8c0.5,0,0.6,0.4,0.6,1.7C-39.8-11.6-39.8-11.2-40.3-11.2 M-42.5-12.9c0,1.6,0.4,2.8,2.2,2.8
							c1.9,0,2.2-1.2,2.2-2.8s-0.4-2.8-2.2-2.8C-42.3-15.7-42.5-14.5-42.5-12.9"/>
					</g>
					<g id="g3251" transform="translate(96.2175,563.2131)">
						<path id="path3253" inkscape:connector-curvature="0" class="st1" d="M-47.2-6.2c0.6,0,0.6,0.6,0.6,1.6c0,0.9,0,1.7-0.6,1.7
							c-0.5,0-0.6-0.6-0.6-1.6C-47.8-5.4-47.7-6.2-47.2-6.2 M-49.3-1.9h1.5v-0.6h0c0.1,0.4,0.4,0.8,1.1,0.8c1.1,0,1.6-0.8,1.6-2.8
							c0-1.6-0.2-2.8-1.5-2.8c-0.4,0-0.9,0.1-1.2,0.7h0v-2.3h-1.6C-49.3-8.9-49.3-1.9-49.3-1.9z"/>
					</g>
					<g id="g3255" transform="translate(109.1729,568.9016)">
						<path id="path3257" inkscape:connector-curvature="0" class="st1" d="M-54.9-9.6c0,0.7-0.1,1.1-0.5,1.1
							c-0.5,0-0.6-0.4-0.6-1.1H-54.9z M-56.1-10.5v-0.3c0-0.8,0.1-1.2,0.6-1.2c0.4,0,0.5,0.3,0.6,1h1.5c0-1.3-0.7-2-2.1-2
							c-2,0-2.2,1.4-2.2,3c0,1.5,0.4,2.6,2.2,2.6c2,0,2.1-1.2,2.1-3.1H-56.1z"/>
					</g>
					<g id="g3259" transform="translate(113.7497,573.8361)">
						<path id="path3261" inkscape:connector-curvature="0" class="st1" d="M-57.6-12.5h1.5v-0.7h0c0.2,0.5,0.6,0.9,1.3,0.9
							c0.1,0,0.2,0,0.3,0v-1.5c-0.2,0-0.3,0-0.4,0c-0.6,0-1-0.3-1-1v-3h-1.6V-12.5z"/>
					</g>
					<g id="g3263" transform="translate(134.0765,571.1134)">
						<path id="path3265" inkscape:connector-curvature="0" class="st1" d="M-69.7-10.9h-0.7v1.1h0.7V-8h1.6v-1.8h0.7v-1.1h-0.7
							v-2.7c0-0.4,0.1-0.5,0.5-0.5c0.1,0,0.2,0,0.2,0v-1.1c-0.3,0-0.6-0.1-0.9-0.1c-1.1,0-1.4,0.2-1.4,1.4V-10.9z"/>
					</g>
					<path id="path3267" inkscape:connector-curvature="0" class="st1" d="M67.1,561.3h1.6V556h-1.6V561.3z M67.1,563.1h1.6v-1.2
						h-1.6V563.1z"/>
					<g id="g3269" transform="translate(145.6644,573.8361)">
						<path id="path3271" inkscape:connector-curvature="0" class="st1" d="M-76.6-12.5h1.6l0.6-3.9h0l0.6,3.9h1.6l-1.3-5.3h-1.9
							L-76.6-12.5z"/>
					</g>
					<g id="g3273" transform="translate(163.3225,568.9016)">
						<path id="path3275" inkscape:connector-curvature="0" class="st1" d="M-87.2-9.6c0,0.7-0.1,1.1-0.5,1.1
							c-0.5,0-0.6-0.4-0.6-1.1H-87.2z M-88.3-10.5v-0.3c0-0.8,0.1-1.2,0.6-1.2c0.4,0,0.5,0.3,0.6,1h1.5c0-1.3-0.7-2-2.1-2
							c-2,0-2.2,1.4-2.2,3c0,1.5,0.4,2.6,2.2,2.6c2,0,2.1-1.2,2.1-3.1C-85.6-10.5-88.3-10.5-88.3-10.5z"/>
					</g>
					<path id="path3277" inkscape:connector-curvature="0" class="st1" d="M40.3,558h1.6v1.3h-1.6V558z"/>
					<g id="g3279" transform="translate(128.0699,564.8705)">
						<path id="path3281" inkscape:connector-curvature="0" class="st1" d="M-66.2-7.2c0-0.5-0.3-0.7-0.6-0.7
							c-0.3,0-0.5,0.3-0.5,0.7c0,0.3,0.1,0.5,0.2,0.6c0.1,0.1,0.4,0.1,0.9,0.4C-66.2-6.5-66.2-6.7-66.2-7.2 M-64.7-7.7V-5
							c0,1.1-0.6,1.6-1.9,1.6c-0.7,0-1.1-0.1-1.5-0.3c-0.3-0.2-0.5-0.6-0.6-1.2h1.4c0.1,0.3,0.2,0.5,0.6,0.5c0.4,0,0.5-0.2,0.5-0.5
							c0-0.4-0.1-0.5-0.6-0.6c-0.4-0.1-1-0.2-1.4-0.4c-0.4-0.2-0.6-0.7-0.6-1.4c0-1.1,0.5-1.6,1.4-1.6c0.5,0,1,0.3,1.2,0.7h0
							c0-0.2,0-0.4,0.1-0.6h1.5C-64.7-8.6-64.7-8.1-64.7-7.7"/>
					</g>
					<g id="g3283" transform="translate(177.0922,561.6353)">
						<path id="path3285" inkscape:connector-curvature="0" class="st2" d="M-95.4-5.2c0.6,0,1.2,0.3,1.2,2.3c0,2-0.6,2.3-1.2,2.3
							c-0.6,0-1.2-0.3-1.2-2.3C-96.5-4.9-96-5.2-95.4-5.2 M-97.2,1.6h0.6v-2.7h0c0.1,0.6,0.6,0.9,1.2,0.9c1.2,0,1.7-0.9,1.7-2.8
							c0-1.9-0.5-2.8-1.7-2.8c-0.6,0-1.1,0.4-1.3,1h0v-0.9h-0.5C-97.2-5.6-97.2,1.6-97.2,1.6z"/>
					</g>
					<g id="g3287" transform="translate(189.9862,568.1713)">
						<path id="path3289" inkscape:connector-curvature="0" class="st2" d="M-103.1-9.1L-103.1-9.1c-0.1-0.2-0.4-0.3-0.7-0.4
							l-0.5-0.1c-0.6-0.2-0.9-0.5-0.9-1.1c0-0.6,0.3-1,0.8-1c0.7,0,1.2,0.6,1.2,1.5V-9.1z M-105.6-8.4c0,1.1,0.5,1.7,1.7,1.7
							c1.1,0,1.5-0.6,1.5-1.4v-3.2c0-0.3,0.1-0.4,0.3-0.4h0.2v-0.4c-0.1,0-0.2-0.1-0.3-0.1c-0.5,0-0.8,0.1-0.8,0.7v0.2h0
							c-0.2-0.7-0.8-0.9-1.4-0.9c-0.9,0-1.4,0.6-1.4,1.5c0,0.7,0.3,1.3,1.1,1.5l1.1,0.3c0.4,0.1,0.5,0.2,0.5,0.8
							c0,0.7-0.4,0.9-0.9,0.9c-0.7,0-1-0.4-1-1.2C-105-8.4-105.6-8.4-105.6-8.4z"/>
					</g>
					<g id="g3291" transform="translate(194.5516,573.9339)">
						<path id="path3293" inkscape:connector-curvature="0" class="st2" d="M-105.8-12.6h0.5v-0.7h0c0.3,0.6,0.8,0.9,1.4,0.9
							c0.8,0,1.4-0.4,1.4-1.4v-4h-0.6v3.9c0,0.7-0.3,1.1-0.9,1.1c-0.7,0-1.2-0.5-1.2-1.4v-3.6h-0.6V-12.6z"/>
					</g>
					<g id="g3295" transform="translate(205.4767,578.4983)">
						<path id="path3297" inkscape:connector-curvature="0" class="st2" d="M-112.3-15.3h0.6v-4.5h0l2.1,2.7h0.7l-1.6-2l1.9-3.4
							h-0.7l-1.6,2.8l-0.8-0.9v-1.9h-0.6V-15.3z"/>
					</g>
				</g>
			</g>
		</g>
	</g>
</g>
</svg>
