<?xml version="1.0" encoding="utf-8"?>
<!-- Generator: Adobe Illustrator 21.0.2, SVG Export Plug-In . SVG Version: 6.00 Build 0)  -->
<svg version="1.1" id="Layer_1" xmlns="http://www.w3.org/2000/svg" xmlns:xlink="http://www.w3.org/1999/xlink" x="0px" y="0px"
	 viewBox="0 0 100 50" style="enable-background:new 0 0 100 50;" xml:space="preserve">
<g>
	<path d="M5.9,19.7h1.2v-2.4c-0.5,0-1.2,0-1.7,0c-2.9,0-3.9,1.6-3.9,3.3v1H0v2.2h1.6v8.7h3.3v-8.7h2v-2.2H5v-0.8
		C5,20,5.5,19.7,5.9,19.7"/>
	<rect x="8.4" y="21.4" width="3.1" height="11.1"/>
	<rect x="8.5" y="17.2" width="3.1" height="2.6"/>
	<path d="M20.8,24.2v-3.1c-2.7,0-3.4,0.6-3.9,2v-1.7h-3.1v11H17v-5C17,26,17.3,23.7,20.8,24.2"/>
	<path d="M24.5,24.2c0-1.3,3.8-1.3,3.6,0.5H31c-0.2-2.7-2.5-3.5-4.8-3.5c-2.4,0-4.8,0.9-4.8,3.7c0,1.9,1.7,2.5,3.5,3
		c2.1,0.5,3.2,0.4,3.4,1.4c0.2,1.3-1.4,1.5-1.9,1.5c-1.2,0-2.3-0.3-2.3-1.7h-2.9c0.1,2.9,2.6,3.8,5.1,3.8c2.5,0,5-1.1,5-4
		C31.3,24.6,24.5,26.3,24.5,24.2"/>
	<path d="M38.6,32.5v-2.4c-2,0-2-0.1-2-1.3v-4.9h2v-2.3h-2v-3.5h-3.2v3.4h-1.6v2.3h1.6v5.7C33.3,31.6,33.2,32.8,38.6,32.5"/>
	<path d="M46.9,26.9c0-2.8,1.4-3.4,2.5-3.4c1.7,0,2.5,1.3,2.5,3.3c0,2-0.6,3.5-2.5,3.5C47.8,30.4,46.9,29,46.9,26.9 M51.8,31.3
		l0.1,1.2h3V17.2h-3.2l0,5.3c-0.7-1.1-1.9-1.4-3.2-1.4c-3.2,0-4.8,2.7-4.8,5.7c0,3,1.6,5.9,4.9,5.9C50.1,32.8,51.1,32.5,51.8,31.3"
		/>
	<rect x="57" y="21.4" width="3.1" height="11.1"/>
	<rect x="57.1" y="17.2" width="3.1" height="2.6"/>
	<path d="M69.4,24.2v-3.1c-2.7,0-3.4,0.6-3.9,2v-1.7h-3.1v10.9h3.2v-4.9C65.6,25.9,66,23.6,69.4,24.2"/>
	<path d="M72.7,25.7c0-0.9,0.7-2.2,2.5-2.2c1.3,0,2.2,0.8,2.2,2.2 M80.4,29.3h-3c-0.2,0.4-0.8,1.1-2.1,1.1c-0.9,0-2.5-0.8-2.6-2.7
		h7.9c0.2-3.5-1.6-6.6-5.4-6.6c-3.3,0-5.6,2.6-5.6,5.8c0,3.4,2.1,5.8,5.6,5.8C77.7,32.7,79.5,31.9,80.4,29.3"/>
	<path d="M84.9,27c0-1.6,0.6-3.6,2.5-3.5c1,0,2,0.8,2.2,2l2.9,0c-0.2-2.9-2.6-4.3-5.1-4.3c-3.5,0-5.6,2.5-5.6,5.9
		c0,3.5,2.2,5.7,5.5,5.7c2.9,0,4.8-1.4,5.2-4.3l-2.9-0.1c-0.2,1.3-1.1,2-2.4,2C85.6,30.4,84.9,28.7,84.9,27"/>
	<path d="M98,28.8v-4.9h2v-2.3h-2v-3.4h-3.2v3.4h-1.6v2.3h1.6v5.7c0,1.9-0.2,3.1,5.3,2.9v-2.4C97.9,30.1,97.9,30,98,28.8"/>
</g>
</svg>
