<?xml version="1.0" encoding="utf-8"?>
<!-- Generator: Adobe Illustrator 21.0.2, SVG Export Plug-In . SVG Version: 6.00 Build 0)  -->
<svg version="1.1" id="Layer_1" xmlns="http://www.w3.org/2000/svg" xmlns:xlink="http://www.w3.org/1999/xlink" x="0px" y="0px"
	 viewBox="0 0 100 50" style="enable-background:new 0 0 100 50;" xml:space="preserve">
<style type="text/css">
	.st0{fill:#312782;}
</style>
<g id="_x23_15569cff">
	<path class="st0" d="M15.4,7.5h27.7c0.4,0.3,0.8,0.6,1.1,0.9c-9.3,0-18.5,0-27.8,0C16.1,8.1,15.8,7.8,15.4,7.5z"/>
	<path class="st0" d="M57.6,7.5h27.5C85,8,84.3,8.3,83.8,8.3c-9.1,0-18.2,0-27.3,0C56.8,8.1,57.3,7.7,57.6,7.5z"/>
	<path class="st0" d="M17.8,9.5c9.1,0,18.2,0,27.2,0c0.7-0.2,1.1,0.5,1.6,0.9c-9.3,0-18.5,0-27.8,0C18.5,10.1,18.2,9.8,17.8,9.5z"/>
	<path class="st0" d="M54.2,10.4c0.3-0.3,0.7-0.6,1-0.9c9.2,0,18.5,0,27.7,0c-0.3,0.3-0.7,0.6-1.1,0.9
		C72.6,10.4,63.4,10.4,54.2,10.4z"/>
	<path class="st0" d="M20.2,11.5c9.3,0,18.6,0,27.9,0c0.3,0.3,0.7,0.6,1,0.9c-9.1,0-18.1,0-27.2,0C21.2,12.6,20.7,11.9,20.2,11.5z"
		/>
	<path class="st0" d="M51.8,12.4c0.3-0.3,0.6-0.6,1-0.9c9.3,0,18.5,0,27.8,0c-0.4,0.3-0.8,0.6-1.2,0.9C70.2,12.4,61,12.4,51.8,12.4z
		"/>
	<path class="st0" d="M22.6,13.6c9.2,0,18.4,0,27.7,0c0.5,0.2,0.8,0.6,1.2,0.9c-9.2,0-18.5,0-27.7,0C23.3,14.2,23,13.9,22.6,13.6z"
		/>
	<path class="st0" d="M52.1,13.6c8.7,0,17.4,0,26.1,0c-0.5,0.3-1,1-1.6,0.9c-7.8,0-15.6,0-23.4,0C52.8,14.2,52.5,13.9,52.1,13.6z"/>
	<path class="st0" d="M25,15.6c9.2,0,18.4,0,27.7,0c0.4,0.2,0.7,0.6,1.1,0.9c-9.2,0-18.4,0-27.6,0C25.7,16.3,25.4,15.9,25,15.6z"/>
	<path class="st0" d="M54.4,15.6c7.1,0,14.3,0,21.4,0c-0.4,0.3-0.8,0.6-1.2,0.9c-6.4,0-12.7,0-19.1,0C55.2,16.2,54.8,15.9,54.4,15.6
		z"/>
	<path class="st0" d="M27.4,17.6c9.2,0,18.4,0,27.7,0c0.4,0.3,0.7,0.6,1.1,0.9c-9.3,0-18.5,0-27.8,0C28.1,18.2,27.7,17.9,27.4,17.6z
		"/>
	<path class="st0" d="M56.9,17.6c5.5,0,11,0,16.5,0c-0.4,0.3-0.7,0.8-1.2,0.9c-4.8,0-9.5,0-14.3,0C57.6,18.2,57.2,17.9,56.9,17.6z"
		/>
	<path class="st0" d="M15.3,20.4c1.3,0,2.5,0,3.8,0c0,1.3,0,2.5,0,3.8c1.3,0,2.6,0,3.9,0c0-1.3,0-2.5,0-3.8c1.3,0,2.6,0,3.9,0
		c0,3.5,0,7.1,0,10.6c-1.3,0-2.6,0-3.9,0c0-1.3,0-2.7,0-4c-1.3,0-2.6,0-3.9,0c0,1.3,0,2.7,0,4c-1.3,0-2.5,0-3.8,0V20.4z"/>
	<path class="st0" d="M27.2,31.1c1.6-3.6,3.1-7.1,4.7-10.7c1.2,0,2.4,0,3.6,0c1.6,3.5,3.2,7.1,4.7,10.7c-1.3,0-2.6,0-3.8,0
		c-0.3-0.6-0.5-1.2-0.8-1.8c-1.3,0-2.6,0-3.9,0c-0.3,0.6-0.5,1.2-0.8,1.8C29.8,31.1,28.5,31.1,27.2,31.1 M32.9,27c0.6,0,1.1,0,1.7,0
		c-0.3-0.7-0.5-1.3-0.8-2C33.4,25.7,33.2,26.3,32.9,27z"/>
	<path class="st0" d="M40.6,20.4c1.3,0,2.6,0,3.8,0c0,2.6,0,5.3,0,7.9c1.3,0,2.5,0,3.8,0c0,0.9,0,1.8,0,2.7c-2.6,0-5.1,0-7.7,0
		C40.6,27.5,40.6,24,40.6,20.4z"/>
	<path class="st0" d="M49,20.4c1.2,0,2.5,0,3.7,0c0,3.6,0,7.1,0,10.7c-1.2,0-2.5,0-3.7,0C49,27.5,49,24,49,20.4z"/>
	<path class="st0" d="M54.2,20.4c2.5,0,5,0,7.5,0c0,0.8,0,1.6,0,2.4c-1.2,0-2.4,0-3.6,0c0,0.5,0,0.9,0,1.4c1.2,0,2.3,0,3.5,0
		c0,0.9,0,1.8,0,2.6c-1.2,0.1-2.3,0-3.5,0c0,1.4,0,2.8,0,4.1c-1.3,0-2.6,0-3.9,0C54.2,27.5,54.2,24,54.2,20.4z"/>
	<path class="st0" d="M65,20.4c1.2,0,2.5,0,3.7,0c1.3,3,2.6,6,4,9c1-1.2,2-2.4,3-3.6c-1.4-1.8-2.8-3.6-4.2-5.4c1.7,0,3.3,0,5,0
		c0.6,0.7,1.2,1.5,1.8,2.3c0.6-0.7,1.2-1.5,1.8-2.3c1.4,0,2.9,0,4.3,0c-1.3,1.7-2.8,3.3-4,5.1c1.5,1.9,2.9,3.7,4.4,5.6
		c-1.6,0-3.3,0.1-4.9-0.1c-0.6-0.9-1.3-1.7-2-2.5c-0.7,0.9-1.4,1.7-2.1,2.6c-2.1,0-4.1,0.1-6.2,0c-0.3-0.6-0.5-1.2-0.8-1.8
		c-1.3,0-2.5,0-3.8,0c-0.3,0.6-0.5,1.2-0.8,1.8c-1.3,0-2.6,0-3.8,0C61.9,27.5,63.5,24,65,20.4 M66.9,25c-0.3,0.7-0.6,1.3-0.9,2
		c0.6,0,1.2,0,1.7,0C67.5,26.4,67.2,25.7,66.9,25z"/>
	<path class="st0" d="M28.4,32.8c4.8,0,9.6,0,14.4,0c0.3,0.3,0.7,0.6,1,0.9c-5.5,0-11,0-16.5,0C27.7,33.4,28,33.1,28.4,32.8z"/>
	<path class="st0" d="M44.5,32.8c9.2,0,18.4,0,27.7,0c0.4,0.2,0.7,0.6,1.1,0.9c-9.2,0-18.4,0-27.6,0C45.2,33.5,44.9,33.1,44.5,32.8z
		"/>
	<path class="st0" d="M24.8,35.7c0.5-0.3,0.9-1,1.6-0.9c6.2,0,12.4,0,18.6,0c0.5,0.2,0.8,0.6,1.2,0.9C39.1,35.7,32,35.7,24.8,35.7z"
		/>
	<path class="st0" d="M46.9,34.9c9.2,0,18.5,0,27.7,0c0.4,0.3,0.7,0.6,1.1,0.9c-9.3,0-18.5,0-27.8,0C47.6,35.4,47.2,35.2,46.9,34.9z
		"/>
	<path class="st0" d="M23.7,36.9c7.9,0,15.9,0,23.8,0c0.4,0.2,0.7,0.6,1.1,0.9c-8.7,0-17.4,0-26.1,0C22.9,37.5,23.3,37.1,23.7,36.9z
		"/>
	<path class="st0" d="M49.2,36.9c9.2,0,18.4,0,27.7,0c0.5,0.2,0.8,0.6,1.2,0.9c-9.2,0-18.5,0-27.7,0C50,37.5,49.6,37.2,49.2,36.9z"
		/>
	<path class="st0" d="M20.1,39.8c0.4-0.3,0.8-0.6,1.2-0.9c9.2,0,18.4,0,27.6,0c-0.3,0.3-0.7,0.6-1,0.9
		C38.6,39.8,29.3,39.8,20.1,39.8z"/>
	<path class="st0" d="M51.6,38.9c9.2,0,18.5,0,27.7,0c0.4,0.3,0.8,0.6,1.2,0.9c-9.3,0-18.6,0-27.8,0C52.3,39.5,52,39.2,51.6,38.9z"
		/>
	<path class="st0" d="M17.8,41.8c0.3-0.3,0.7-0.6,1-0.9c9.2,0,18.5,0,27.7,0c-0.5,0.3-0.8,1-1.5,0.9C35.9,41.8,26.9,41.8,17.8,41.8z
		"/>
	<path class="st0" d="M54,40.9c9.3,0,18.5,0,27.8,0c0.4,0.3,0.7,0.6,1.1,0.9c-9.1,0-18.3,0-27.4,0C54.9,41.9,54.5,41.2,54,40.9z"/>
	<path class="st0" d="M16.5,43c9.2,0,18.5,0,27.7,0c-0.3,0.3-0.7,0.6-1,0.9H15.4C15.8,43.6,16.1,43.3,16.5,43z"/>
	<path class="st0" d="M56.4,43c9.1,0,18.3,0,27.4,0c0.6-0.1,1,0.6,1.4,0.9H57.6C57.2,43.6,56.8,43.3,56.4,43z"/>
</g>
</svg>
