<?xml version="1.0" encoding="utf-8"?>
<!-- Generator: Adobe Illustrator 21.0.2, SVG Export Plug-In . SVG Version: 6.00 Build 0)  -->
<svg version="1.1" id="Layer_1" xmlns="http://www.w3.org/2000/svg" xmlns:xlink="http://www.w3.org/1999/xlink" x="0px" y="0px"
	 viewBox="0 0 100 50" style="enable-background:new 0 0 100 50;" xml:space="preserve">
<style type="text/css">
	.st0{fill:#1A1818;}
	.st1{fill:#E42021;}
</style>
<g>
	<g transform="translate(123.0471,607.02)">
		<path class="st0" d="M-110.1-581.3v6.1c0,0.8-0.6,1.5-1.5,1.5h-0.8v0.3h7v-0.3h-0.8c-0.8,0-1.5-0.7-1.5-1.5v-6.2v-7.4
			c0-0.7,0.6-1.5,1.5-1.5h0.8v-0.3h-7v0.3h0.8c0.9,0,1.5,0.7,1.5,1.5v6.6h-8.3v-6.6c0-0.7,0.7-1.5,1.5-1.5h0.8v-0.3h-7v0.3h0.8
			c0.9,0,1.5,0.7,1.5,1.5v7.4v6.2c0,0.7-0.7,1.5-1.5,1.5h-0.8v0.3h7v-0.3h-0.8c-0.8,0-1.5-0.7-1.5-1.5v-6.1
			C-118.4-581.3-110.1-581.3-110.1-581.3z"/>
	</g>
	<g transform="translate(144.26221,602.7139)">
		<path class="st0" d="M-114.7-573.7c0.1,1-0.6,2.5-1.4,3.3c-0.8,0.7-2,1.4-3.6,1.4c-1.8,0-3.3-0.9-3.9-1.2c-0.3-0.1-0.8-0.1-1,0
			c-0.3,0.2-0.5,0.5-0.6,1.1h-0.3v-5.9h0.3c0.2,1.8,1.1,2.9,1.6,3.5c0.9,1,2.5,1.6,4.1,1.3c1.3-0.2,2.6-1.6,2.5-3.2
			c-0.1-0.6-0.2-1.5-1.5-2.3c-0.8-0.5-1.9-1.3-3-2c-1.4-0.9-2.6-1.9-2.9-2.2c-0.4-0.5-1-1.3-1-2.4c0-1,0.4-2.2,1.2-2.9
			c0.8-0.8,1.9-1.4,3.5-1.4c1.6,0,2.8,0.8,3.2,1c0.4,0.2,0.8,0.1,1.1,0c0.2-0.1,0.4-0.4,0.5-0.9h0.3v5.6h-0.3
			c-0.2-1.8-1-3.2-1.6-3.7c-0.5-0.5-1.6-1.2-3.2-0.9c-1.6,0.3-2.3,1-2.4,2.2c-0.1,0.9,0.4,1.5,0.7,1.9c0.6,0.7,4.4,2.9,6.1,4.4
			C-115.5-576.2-114.8-575.3-114.7-573.7"/>
	</g>
	<g transform="translate(151.36369,598.2459)">
		<path class="st0" d="M-116.3-565.7c1.2,0.4,3.4,0.6,5-0.5c1.9-1.4,2.3-4.6-0.4-6.4c-1.1-0.7-3.8-0.6-4.6-0.4V-565.7z
			 M-116.3-573.9c0.8,0.2,3.3,0.3,4.3-0.3c1.5-0.9,2-2.5,1.8-3.8c-0.2-0.8-0.6-1.6-1.4-2.1c-1.5-1-3.6-0.9-4.7-0.5
			C-116.3-580.7-116.3-573.9-116.3-573.9z M-110.7-573.5c3,1,3.9,3.2,3.3,5.4c-0.7,2.6-3.6,3.1-4.6,3.2c-0.4,0.1-1.5,0.1-2.6,0.1
			c-1.9,0-4.4,0-6.4,0v-0.3h1c0.6,0,1.4-0.5,1.4-1.4v-13.6c0-0.8-0.7-1.4-1.4-1.4h-1v-0.3c1.7,0,4.3,0,6.1,0c1.5,0,2.3,0.1,2.8,0.2
			c0.9,0.2,3.4,0.9,4,3.2C-107.6-576.4-108.5-574.1-110.7-573.5"/>
	</g>
	<g transform="translate(183.07919,618.4167)">
		<path class="st0" d="M-123.1-601.7l0.2,5.8h-0.3c-0.2-1.5-0.7-2.5-1.4-3.1c-0.2-0.2-0.6-0.6-1.1-0.9c-0.9-0.6-2.3-1.1-3.9-0.8
			c-2.4,0.4-3.6,2-4.3,3.6c-0.8,1.9-1.3,5.1,0,7.9c1,2.2,3.1,3.1,4.7,3.4c1.3,0.2,4.3,0.1,6.6-2.9l0.4,0.2c-1.8,2.5-4.1,4.1-6.7,4
			c-3.4,0-5.5-1.9-6.5-3c-1-1.2-1.8-3.4-1.8-5.3c0-1.7,0.4-3.6,1-4.8c1.1-1.9,3.3-3.9,6.2-4.1c2.2-0.2,3.6,0.2,4.9,0.9
			c0.6,0.3,0.9,0.4,1.3,0.2c0.3-0.1,0.6-0.4,0.6-1C-123.4-601.7-123.1-601.7-123.1-601.7z"/>
	</g>
	<g transform="translate(190.5751,607.89571)">
		<path class="st1" d="M-124.7-582.9l8.5,8.5v-17.1C-116.2-591.5-124.7-582.9-124.7-582.9z"/>
	</g>
	<g transform="translate(201.4597,597.0144)">
		<path class="st1" d="M-127.1-563.5h17.1l-8.5-8.5L-127.1-563.5z"/>
	</g>
	<g transform="translate(212.3421,607.8961)">
		<path class="st1" d="M-129.4-582.9l8.5-8.5h-17.1C-137.9-591.5-129.4-582.9-129.4-582.9z"/>
	</g>
	<g transform="translate(223.2254,618.7787)">
		<path class="st1" d="M-131.8-602.3v17.1l8.5-8.5L-131.8-602.3z"/>
	</g>
</g>
</svg>
