<?xml version="1.0" encoding="utf-8"?>
<!-- Generator: Adobe Illustrator 21.0.2, SVG Export Plug-In . SVG Version: 6.00 Build 0)  -->
<svg version="1.1" id="Layer_1" xmlns="http://www.w3.org/2000/svg" xmlns:xlink="http://www.w3.org/1999/xlink" x="0px" y="0px"
	 viewBox="0 0 100 50" style="enable-background:new 0 0 100 50;" xml:space="preserve">
<style type="text/css">
	.st0{fill:#006C32;}
	.st1{fill:#221E20;}
	.st2{fill:#6D6E70;}
	.st3{fill:#006B4E;}
	.st4{fill:#FFFFFF;}
</style>
<g>
	<path class="st0" d="M21.5,24.9c0.8-1.2,1.4-2.2,1.9-3.6H25c-0.7,1.8-1.6,3.3-2.8,4.9v2.4h-1.4v-2.4c-1.2-1.7-2.1-3.1-2.8-4.9h1.6
		C20.1,22.7,20.7,23.7,21.5,24.9"/>
	<path class="st0" d="M35.8,24.2c-0.7-0.2-1.1-0.3-1.3-0.5c-0.3-0.2-0.3-0.3-0.3-0.5c0-0.3,0.2-0.5,0.4-0.6s0.6-0.2,0.9-0.2
		c0.5,0,1,0.1,1.6,0.3l0.5-1.1c-0.6-0.3-1.3-0.5-2.1-0.5c-0.7,0-1.4,0.2-1.9,0.5c-0.6,0.4-0.9,0.9-0.9,1.6c0,1.3,1.1,1.7,2.1,2.1
		c0.4,0.2,0.9,0.3,1.2,0.4c0.3,0.2,0.5,0.4,0.5,0.7c0,0.3-0.2,0.6-0.4,0.7c-0.3,0.2-0.7,0.2-1.1,0.2c-1,0-1.7-0.4-2.2-0.7l-0.5,1.1
		c0.6,0.5,1.7,0.8,2.7,0.8c1.6,0,2.8-0.9,2.8-2.2C37.9,25.2,37,24.6,35.8,24.2"/>
	<path class="st0" d="M28.2,27.3h-1v-4.8h0.9c1.5,0,2.5,0.8,2.5,2.3C30.6,26.3,29.7,27.3,28.2,27.3 M28,21.2h-2.2v7.4h2.3
		c2.2,0,3.8-1.5,3.8-3.7C31.9,22.7,30.4,21.2,28,21.2"/>
	<path class="st0" d="M44.7,27.5h-1.2v-2.1h1.2c1,0,1.6,0.3,1.6,1C46.4,27.4,45.4,27.5,44.7,27.5 M43.6,22.3h1c1,0,1.4,0.2,1.4,0.9
		s-0.5,1-1.3,1h-1.2V22.3z M46.1,24.7L46.1,24.7c0.8-0.3,1.3-0.8,1.3-1.7c0-1.3-1.1-1.8-2.3-1.8h-2.9v7.3h2.7c1.4,0,2.8-0.6,2.8-2.1
		C47.7,25.5,47.1,24.9,46.1,24.7"/>
	<polygon class="st0" points="62.1,21.2 60.9,21.2 60.9,26.5 60.8,26.5 57.7,21.2 56,21.2 56,28.6 57.3,28.6 57.3,23.1 57.3,23.1 
		60.5,28.6 62.1,28.6 	"/>
	<polygon class="st0" points="66.4,24.8 69.8,21.2 68.1,21.2 65,24.5 65,24.5 65,21.2 63.7,21.2 63.7,28.6 65,28.6 65,25 65,25 
		68.3,28.6 70.1,28.6 	"/>
	<polygon class="st0" points="5.9,28.6 10,28.6 10.4,27.3 7.2,27.3 7.2,21.2 5.9,21.2 	"/>
	<polygon class="st0" points="0.2,28.6 4.3,28.6 4.8,27.3 1.5,27.3 1.5,21.2 0.2,21.2 	"/>
	<path class="st0" d="M14.4,27.4c-1.5,0-2.3-1.1-2.3-2.5c0-1.4,0.9-2.5,2.3-2.5c1.5,0,2.4,1.1,2.4,2.5
		C16.7,26.3,15.9,27.4,14.4,27.4 M14.4,21.2c-2.3,0-3.7,1.7-3.7,3.8c0,2.1,1.4,3.7,3.7,3.7c2.3,0,3.7-1.7,3.7-3.8
		C18.1,22.8,16.6,21.2,14.4,21.2"/>
	<path class="st0" d="M51.6,27c0.5,0,1.1,0,1.5-0.2l0.7,1.7h1.5l-3.2-7.3h-1.1l-3.2,7.3h1.5l0.7-1.7C50.6,27,51.1,27,51.6,27
		 M51.6,25.9c-0.4,0-0.7,0-1.1-0.1l1.1-2.9l1.1,2.9C52.4,25.9,52,25.9,51.6,25.9"/>
	<path class="st1" d="M99,20.6c0.5,0.4,1,0.6,1,1.2c0,0.2-0.2,0.3-0.7,0.3c-0.4,0-0.8-0.1-1-0.4c-0.2-0.2,0.1-0.5-0.1-0.7
		c-0.1-0.2-0.3-0.1-0.5-0.2c-0.2-0.1-0.2-0.2-0.3-0.4c-0.1-0.3-0.6-0.8-1.1-1.4c-0.5-0.5-0.9-0.7-1.2-0.7c-0.2,0-0.2,0-0.3,0
		c-0.4,0-0.7,0.4-1.3,0.6c-0.4,0.2-0.6,0.3-0.9,0.3l-0.1,0.1l0.5,0c0.5,0,1.1-0.1,1.6-0.1s0.7,0.4,0.9,0.9c0.4,0.9,0.9,2.3,1.6,3.4
		c0.3,0.5,0.6,0.9,0.6,1.5c0,0.2,0,0.5-0.3,0.5c-0.4,0-1.3-0.4-1.3-0.8c0-0.3,0.3-0.5,0.3-0.8c0-0.2-0.3-0.2-0.4-0.3
		c-0.2-1-0.5-2-1.1-2.6c-0.3-0.3-0.3-0.4-0.6-0.4c-0.2,0-0.3,0-0.4,0.1c-0.8,0.3-1.8,1.2-3.1,1.5c-0.5,0.2-0.6-0.1-1.1,0h0
		c-0.4,0.1-0.7,0.3-1.3,0.5c-0.8,0.2-2.1,0.3-3.2,0.2c-0.8-0.1-1.7-0.3-2.2-0.2c-0.3,0.9-1,2.1-2,2.6c-0.5,0.2-0.7,0.6-0.5,1.2
		c0.2,0.8,0.9,1.3,1.2,2c0.3,0.5,0.9,1.4,1.4,1.7c0.5,0.3,0.9,0.7,0.9,1.1c0,0.2-0.1,0.3-0.2,0.3h-1.1c-0.2,0-0.3-0.1-0.3-0.2
		c-0.2-0.3,0-0.5-0.3-0.8c-0.2-0.2-0.3-0.1-0.5-0.3c-0.3-0.3-0.1-0.5-0.3-0.9c-0.7-1.1-1-1.4-1.6-2.2c-0.3-0.4-0.7-0.6-0.7-1.2
		c0-0.7,0.7-0.8,0.7-1.5c-0.4,0.3-0.9,0.6-1.7,0.7c-0.1,0-0.4,0.2-0.5,0.3c-0.3,0.3-0.4,0.5-0.4,0.9c-0.1,0.9-0.3,1.8-0.2,2.8
		c0.2,0.6,0.3,0.8,0.7,1.1c0.3,0.2,0.7,0.5,0.7,0.9c0,0.1,0,0.3-0.2,0.3H77c-0.1,0-0.2-0.1-0.3-0.2c-0.1-0.2,0-0.4-0.1-0.7
		c-0.1-0.5-0.7-0.5-0.7-1.1c0-0.2,0.1-0.4,0.1-0.7c0-0.8,0.3-2,0-3.5c-0.1-0.9,0.8-0.9,1.3-1.7c0.3-0.4,0.2-0.3,0.4-0.6
		c0.2-0.3,0.1-0.6,0.1-0.8c0-0.3-0.3-0.8-0.1-1.9c0.1-0.5,0.3-1,0.6-1.4c0,0,0-0.1-0.1-0.1c-0.5,0-0.5-0.1-0.8-0.1s-0.5,0.3-0.6,0.4
		c-0.2-0.1-0.2-0.2-0.2-0.3c0-0.2,0-0.3,0.2-0.5c0.1-0.1,0-0.1-0.1-0.1c-0.4,0-0.7,0.5-0.8,0.8c-0.2,0-0.2-0.3-0.3-0.3
		c-0.1,0-0.2,0.2-0.2,0.3c0,1.1,1.7,1.3,1.7,2.7c0,1.6-2,1.3-2,1.9c0,0.1,0.1,0.2,0.2,0.3c-0.1,0.2-0.2,0.2-0.4,0.2
		c-0.4,0-0.8-0.3-0.8-0.8c0-0.9,1.2-0.9,1.2-1.6c0-0.3-0.2-0.4-0.4-0.6c-1.1-0.8-1.8-1.6-1.8-3c0-1.4,1-2.5,2.3-2.5
		c1.9,0,1.9,2.2,3.7,2.4c0.6-0.4,1.4-0.7,2.1-0.7c1.1,0,1.6,0.3,2.8,0.3c0.5,0,1.3-0.1,2.2-0.8c0.3-0.2,0.5-0.3,0.8-0.6
		c0.7-0.6,1.4-1.9,1.4-2.8v0c0-0.3-0.1-0.5-0.2-0.5c-0.4,0-0.8,0.4-1.2,0.8c-0.3,0.3,0.1,0.4-0.4,0.7c-0.2,0.1-0.4-0.1-0.7-0.1
		c-0.5,0-0.7-0.5-0.7-1c0-0.2,0.2-0.3,0.3-0.5c0.2-0.5,0.2-0.6,0.4-1.1c0.1-0.3,0.4-0.5,0.3-0.7c0-0.1-0.1-0.1-0.1-0.2
		c0-0.5,0.6-0.8,0.6-1.2c0-0.3-0.3-0.4-0.3-0.6c-0.1-0.2,0-0.3,0-0.3c0,0,0,0,0.1,0c0.2,0,0.3,0.3,0.5,0.4c0-0.3-0.1-0.4-0.1-0.6
		c0-0.1,0-0.3,0.1-0.3c0.2,0,0.1,0.2,0.3,0.3c0.2,0.1,0.3,0.1,0.5,0.2c0.2,0.2,0.4,0.4,0.5,0.4C89,9.5,89,9.2,88.9,9
		c0.3,0,0.5,0.2,0.9,0.2c0.5,0,0.7,0.2,0.9,0.2C91,9.8,91.1,10,91.4,10c0.2,0,0.3-0.2,0.3-0.2c0.3,0.2,0.3,0.7,0,1.1
		c0.1,0.3,0.6,0.4,0.9,0.6c0.2,0.2,0.2,0.3,0.4,0.3c0.1,0.1,0.3,0.1,0.3,0c0.1,0.5-0.3,0.9-0.8,1c0,0.6,0.7,1,0.9,1.1
		c-0.2,0.4-0.5,0.5-0.7,0.5c0.1,0.4,0.5,0.9,0.3,1.4c-0.2-0.1-0.5,0-0.5,0.3c0,0.3,0.4,0.5,0,0.7c-0.2,0.1-0.2,0.4,0.1,0.6
		c0.4-0.1,0.9-0.1,1.4-0.1c0.3,0,0.7-0.1,1-0.1c0.5,0,0.8,0.2,1.2,0.6C97.2,18.8,98,19.9,99,20.6"/>
	<path class="st2" d="M73.9,17.9c0.2,0,0.6-1.1,1.3-1.1c0.2,0,0.3,0.1,0.3,0.2c0,0.2-0.3,0.3-0.3,0.5c0,0,0,0.1,0.1,0.1
		c0.2,0,0.3-0.4,1.1-0.4c0.2,0,0.4,0,0.5,0.1c0.1,0,0.3,0.1,0.2-0.1c-0.2-0.5-0.8-1-1.6-1s-1.7,0.7-1.7,1.6
		C73.8,17.8,73.8,17.9,73.9,17.9"/>
	<path class="st2" d="M87.9,11c-0.2-0.1-0.3-0.2-0.2-0.5c0-0.3,0.1-0.4-0.1-0.4c-0.1,0-0.3,0-0.4,0.2c-0.1,0.2-0.3,0.4-0.4,0.6
		c-0.1,0.2,0.2,0.2,0,0.6c-0.3,0.6-0.4,0.8-0.6,1.2c-0.2,0.5-0.3,0.5-0.3,0.7c-0.1,0.1,0.1,0.2,0.4,0.1c0.3-0.1,0.3,0.2,0.2,0.5
		c-0.1,0.2,0,0.2,0.2,0c0.2-0.2-0.1-0.3,0-0.9c0.1-0.5,0.2-0.8,0.5-1.2c0.3-0.4,0.5-0.7,0.9-0.6C88.3,11.4,88.2,11.1,87.9,11"/>
	<path class="st2" d="M97.3,25.3c0.1,0,0.1-0.1,0.1-0.2c0-0.2-0.1-0.6-0.3-0.7c0,0.3-0.2,0.6-0.2,0.7C96.9,25.2,97.2,25.3,97.3,25.3
		"/>
	<path class="st2" d="M99.4,21.9c0.1,0,0.3,0,0.3-0.2c0-0.2-0.3-0.5-0.6-0.6C99.3,21.5,99.2,21.9,99.4,21.9"/>
	<path class="st2" d="M90.1,17.3c1.9,0.9,1.8,2.5,1.9,2.1c0.1-0.2,0.3-1-0.3-1.7c-0.5-0.6-0.7-0.5-0.5-1c0.8-2,1.4-5.1-1.1-6.1
		c-0.3-0.1-0.5-0.1-0.5-0.1c0,0,0.3,0.1,0.6,0.3c1.7,1.1,1.1,4.1-0.4,5.5C89.3,16.9,89.5,17,90.1,17.3"/>
	<path class="st2" d="M83.6,31.3c0.1,0,0.1-0.2,0-0.3c-0.1-0.2-0.3-0.3-0.5-0.4c0,0.2,0.1,0.7,0.3,0.7L83.6,31.3"/>
	<path class="st2" d="M77.9,31.3c0.1,0,0-0.2,0-0.3c-0.1-0.2-0.3-0.3-0.5-0.4c0,0.2,0.1,0.7,0.3,0.7L77.9,31.3"/>
	<path class="st2" d="M84.8,19.9c1-0.1,1.2-0.3,1.4-1.1c0.1-0.4,0.3-0.8,0.6-1c0.2-0.2,0.3-0.3,0.5-0.5c0-0.1,0.1-0.2,0-0.2
		c-0.1,0.1-0.5,0.3-0.6,0.4c-0.7,0.5-1.9,0.8-2.3,0.8c-1,0-1.8-0.3-2.7-0.3c-2.6,0-3.6,2.1-3.5,3.3c0,0.2,0,0.2,0.1,0.2
		c0.2,0,0.3-0.7,1-1.3c1-0.9,2-1.4,3.5-1.4c1.1,0,1.5,0.3,1.5,0.5c0,0.3-0.5,0.3-0.4,0.5C83.9,19.8,84.1,20,84.8,19.9"/>
	<rect y="33.6" class="st3" width="100" height="7.9"/>
	<g>
		<path class="st4" d="M51.5,39.8v-4.5h2c0.8,0,1.2,0.5,1.2,1.1c0,0.6-0.4,0.9-0.8,1c0.5,0.1,0.9,0.6,0.9,1.1c0,0.7-0.5,1.2-1.3,1.2
			H51.5z M54.1,36.5c0-0.4-0.3-0.7-0.8-0.7H52v1.4h1.3C53.8,37.3,54.1,37,54.1,36.5z M54.2,38.5c0-0.4-0.3-0.8-0.8-0.8H52v1.5h1.4
			C53.9,39.3,54.2,39,54.2,38.5z"/>
		<path class="st4" d="M57.6,38v-2.7h0.5V38c0,0.8,0.4,1.3,1.3,1.3c0.8,0,1.3-0.5,1.3-1.3v-2.7h0.5V38c0,1.1-0.6,1.8-1.8,1.8
			C58.3,39.9,57.6,39.1,57.6,38z"/>
		<path class="st4" d="M64,39.2l0.3-0.4c0.3,0.3,0.8,0.6,1.4,0.6c0.8,0,1-0.4,1-0.8c0-1.1-2.6-0.5-2.6-2.1c0-0.7,0.7-1.2,1.5-1.2
			c0.7,0,1.2,0.2,1.6,0.6L67,36.3c-0.3-0.4-0.8-0.5-1.3-0.5c-0.5,0-0.9,0.3-0.9,0.7c0,1,2.6,0.4,2.6,2.1c0,0.7-0.4,1.3-1.6,1.3
			C65,39.9,64.4,39.6,64,39.2z"/>
		<path class="st4" d="M70.2,39.8v-4.5h0.5v4.5H70.2z"/>
		<path class="st4" d="M77,39.8l-2.6-3.5v3.5h-0.5v-4.5h0.6l2.6,3.5v-3.5h0.5v4.5H77z"/>
		<path class="st4" d="M80.6,39.8v-4.5h2.9v0.5h-2.4v1.4h2.3v0.5h-2.3v1.5h2.4v0.5L80.6,39.8L80.6,39.8z"/>
		<path class="st4" d="M86.1,39.2l0.3-0.4c0.3,0.3,0.8,0.6,1.4,0.6c0.8,0,1-0.4,1-0.8c0-1.1-2.6-0.5-2.6-2.1c0-0.7,0.7-1.2,1.5-1.2
			c0.7,0,1.2,0.2,1.6,0.6L89,36.3c-0.3-0.4-0.8-0.5-1.3-0.5c-0.5,0-0.9,0.3-0.9,0.7c0,1,2.6,0.4,2.6,2.1c0,0.7-0.4,1.3-1.6,1.3
			C87,39.9,86.5,39.6,86.1,39.2z"/>
		<path class="st4" d="M92,39.2l0.3-0.4c0.3,0.3,0.8,0.6,1.4,0.6c0.8,0,1-0.4,1-0.8c0-1.1-2.6-0.5-2.6-2.1c0-0.7,0.7-1.2,1.5-1.2
			c0.7,0,1.2,0.2,1.6,0.6l-0.3,0.4c-0.3-0.4-0.8-0.5-1.3-0.5c-0.5,0-0.9,0.3-0.9,0.7c0,1,2.6,0.4,2.6,2.1c0,0.7-0.4,1.3-1.6,1.3
			C92.9,39.9,92.4,39.6,92,39.2z"/>
	</g>
</g>
</svg>
