<?xml version="1.0" encoding="utf-8"?>
<!-- Generator: Adobe Illustrator 21.0.2, SVG Export Plug-In . SVG Version: 6.00 Build 0)  -->
<svg version="1.1" id="Layer_1" xmlns="http://www.w3.org/2000/svg" xmlns:xlink="http://www.w3.org/1999/xlink" x="0px" y="0px"
	 viewBox="0 0 100 50" style="enable-background:new 0 0 100 50;" xml:space="preserve">
<style type="text/css">
	.st0{fill-rule:evenodd;clip-rule:evenodd;fill:#E31836;}
	.st1{fill-rule:evenodd;clip-rule:evenodd;fill:#221D1F;}
</style>
<g>
	<path class="st0" d="M27.8,38.7c0.6-0.6,5.4-10.8,5.5-11.1c0.1,0.1,0.1,0.1,0.2,0.3l1.6,10.9l7.4,0l-3.8-27.6l-5.7,0
		c-0.9,1.5-1.7,3.7-2.5,5.3c-0.1,0.3-2.4,5.4-2.5,5.2c0,0-0.1,0.1,0,0.1l-3.6-8L24,14.7c-0.3,2.5-1.4,12.5-1.2,13.3
		C23.6,29.9,27.1,36.4,27.8,38.7L27.8,38.7z"/>
	<path class="st0" d="M19.5,38.8c0.3-3.4,3.2-26.5,2.9-27.5l-6.9,0l-3,27.5L19.5,38.8L19.5,38.8z"/>
	<path class="st1" d="M79.5,15.1c2-0.7,3.7,0.7,4.2,2.2c0.6,2-0.7,3.8-2.1,4.3C77.5,23,75.2,16.7,79.5,15.1L79.5,15.1z M87.4,19.4
		c0.7-4.3-2.3-7.4-5.7-8.1c-4.1-0.9-7.4,2.4-8,5.7c-0.7,4.2,2.2,7.6,5.7,8.2C83.5,26,86.8,22.9,87.4,19.4L87.4,19.4z"/>
	<path class="st1" d="M66.7,14.4c1.2,0.1,2.2,0.4,2.2,1.7c0,1.3-0.9,1.7-2.2,1.7L66.7,14.4L66.7,14.4z M70.7,19.2
		c0.6-0.6,0.7-0.5,1.2-1.3c1.3-2.1,0.9-6.6-4.1-6.7c-1.3,0-3.5-0.1-4.7,0l0,13.9l3.7-0.1l0-5.4c0.5,0.5,2.3,5,2.4,5.5l4.2,0
		L70.7,19.2L70.7,19.2z"/>
	<polygon class="st1" points="44.1,12.1 44.1,25.2 51.6,25.3 51.6,21.6 47.8,21.6 47.8,20.2 50.6,20.1 50.6,16.5 47.8,16.4 47.8,15 
		51.5,15 51.6,11.3 44.1,11.3 44.1,12.1 	"/>
	<polygon class="st1" points="53.1,14.8 55.5,14.9 55.5,25.3 59.2,25.3 59.3,14.9 61.7,14.8 61.7,11.3 53.1,11.3 53.1,14.8 	"/>
	<path class="st1" d="M47.7,37.2l0-2.5c1.3,0,2.5,0,3.7,0c1.3,0,2.6-0.3,2.7,1.2c0.1,1.6-1.4,1.4-2.6,1.4
		C50.3,37.2,49,37.2,47.7,37.2L47.7,37.2z M47.7,33.1l-0.1-2.4c1.3,0,2.5,0,3.8,0c1.2,0,2.5-0.2,2.5,1.2c-0.1,1.3-1.3,1.2-2.5,1.2
		C50.2,33.1,49,33.1,47.7,33.1L47.7,33.1z M54.5,33.7c0.6-0.7,1.2-1.4,0.8-2.8c-0.2-0.9-0.9-1.6-1.8-1.7c-1.2-0.2-5.8-0.1-7.2-0.1
		l0,9.7c1.5,0.1,6.5,0.2,7.7-0.2c1.1-0.3,1.7-0.9,1.8-2.2C55.8,34.5,54.9,34.2,54.5,33.7L54.5,33.7z"/>
	<path class="st1" d="M76.2,38.8l0-9.7l-1.4,0l0,7.4l-0.2,0c-0.9-1.1-1.7-2.6-2.5-3.7c-0.8-1.2-1.6-2.6-2.5-3.7l-1.7,0l0,9.6l1.5,0
		l0-7.5c0.5,0.3,2.4,3.4,2.9,4.2C74.7,39.1,73.9,38.8,76.2,38.8L76.2,38.8z"/>
	<path class="st1" d="M61.5,30.7l1.9,4.4l-3.9,0L61.5,30.7L61.5,30.7z M58.8,36.6l5.4,0l0.9,2.2l1.5-0.1l-4.3-9.7l-1.7,0.1l-4.3,9.7
		l1.5,0L58.8,36.6L58.8,36.6z"/>
	<path class="st1" d="M83,32.8c0.9-0.9,3.8-3.3,4-3.7c-2.2,0-1.8-0.2-3.1,1c-1.2,1.1-3.1,3.2-3.9,3.7l0-4.7l-1.4,0l0,9.7l1.5,0l0-3
		c1-0.9,1.2-1.5,1.8-1.9l3.9,4.9l1.8,0C87.3,38.2,83.3,33.5,83,32.8L83,32.8z"/>
</g>
</svg>
