<?xml version="1.0" encoding="utf-8"?>
<!-- Generator: Adobe Illustrator 21.0.2, SVG Export Plug-In . SVG Version: 6.00 Build 0)  -->
<svg version="1.1" id="Layer_1" xmlns="http://www.w3.org/2000/svg" xmlns:xlink="http://www.w3.org/1999/xlink" x="0px" y="0px"
	 viewBox="0 0 100 50" style="enable-background:new 0 0 100 50;" xml:space="preserve">
<style type="text/css">
	.st0{fill:#E73860;}
	.st1{fill:#DEC485;}
	.st2{fill:#327886;}
	.st3{fill:#8ABB9C;}
	.st4{fill:#122135;}
</style>
<g>
	<path id="path14" class="st0" d="M24.6,30c0,0.3-0.1,0.6-0.4,0.8L19.2,36c-0.3,0.3-0.8,0.1-0.8-0.3V24.2l6.1-6.1h0.1L24.6,30"/>
	<path id="path16" class="st1" d="M20.6,14c-0.2-0.2-0.5-0.2-0.7,0l-7.5,7.6h-0.1v8.6l0.1,0.2l6.1-6.1l6.2-6.2L20.6,14"/>
	<path id="path18" class="st2" d="M0,30c0,0.3,0.1,0.6,0.4,0.8L5.5,36c0.3,0.3,0.8,0.1,0.8-0.3V24.2l-6.2-6.1H0V30"/>
	<path id="path20" class="st3" d="M4.7,14c-0.2-0.2-0.5-0.2-0.6,0L0,18.1l6.2,6.2l6.1,6.1v-8.8L4.7,14"/>
	<path id="path22" class="st4" d="M30.7,30.2V18.4h3.2v1.6c0.7-1.2,1.8-1.8,3.2-1.8c1.5,0,2.5,0.6,3.3,1.9c1.3-1.3,2.1-1.9,3.7-1.9
		c2.7,0,4.2,1.5,4.2,4.2v7.8h-3.4v-6.4c0-1.7-0.4-2.4-1.7-2.4s-2,0.8-2,2.4v6.4h-3.4v-6.4c0-1.7-0.4-2.4-1.7-2.4s-2,0.8-2,2.4v6.4
		H30.7"/>
	<path id="path24" class="st4" d="M56.3,27.2c1.6,0,2.8-1.3,2.8-2.9c0-1.6-1.3-2.9-2.8-2.9s-2.8,1.3-2.8,2.9
		C53.5,25.9,54.8,27.2,56.3,27.2z M51.9,19.9c1.2-1.2,2.8-1.8,4.4-1.8c1.7,0,3.2,0.6,4.4,1.7c1.3,1.2,1.9,2.8,1.9,4.4
		c0,1.8-0.6,3.2-1.8,4.4s-2.7,1.8-4.5,1.8c-1.8,0-3.2-0.6-4.5-1.9c-1.2-1.2-1.7-2.7-1.7-4.4S50.7,21,51.9,19.9"/>
	<path id="path26" class="st4" d="M64.5,30.2V18.4h3.3l-0.1,1.6c0.7-1.2,1.8-1.8,3.4-1.8c2.5,0,4,1.6,4,4.2v7.8h-3.5v-6.4
		c0-1.7-0.4-2.4-1.7-2.4c-1.4,0-2.1,0.8-2.1,2.4v6.4H64.5"/>
	<path id="path28" class="st4" d="M93.7,27.2c1.6,0,2.8-1.3,2.8-2.9c0-1.6-1.3-2.9-2.8-2.9c-1.6,0-2.8,1.3-2.8,2.9
		C90.9,25.9,92.2,27.2,93.7,27.2z M89.3,19.9c1.2-1.2,2.8-1.8,4.4-1.8c1.7,0,3.2,0.6,4.4,1.7c1.3,1.2,1.9,2.8,1.9,4.4
		c0,1.8-0.6,3.2-1.8,4.4c-1.2,1.2-2.7,1.8-4.5,1.8c-1.8,0-3.2-0.6-4.5-1.9c-1.2-1.2-1.7-2.7-1.7-4.4S88.1,21,89.3,19.9"/>
	<path id="path30" class="st4" d="M77.4,30.2v-2.5l4.9-6.3h-4.9v-3h8.8v2.8l-4.3,6h4.4v3L77.4,30.2"/>
</g>
</svg>
