<?xml version="1.0" encoding="utf-8"?>
<!-- Generator: Adobe Illustrator 21.0.2, SVG Export Plug-In . SVG Version: 6.00 Build 0)  -->
<svg version="1.1" id="Layer_1" xmlns="http://www.w3.org/2000/svg" xmlns:xlink="http://www.w3.org/1999/xlink" x="0px" y="0px"
	 viewBox="0 0 100 50" style="enable-background:new 0 0 100 50;" xml:space="preserve">
<style type="text/css">
	.st0{fill:#0C4682;}
	.st1{fill:#E10D1A;}
	.st2{fill:#FFFFFF;}
</style>
<g>
	<path id="path3127" class="st0" d="M100,18.9c0-3.8-3.1-7-7-7H7c-3.9,0-7,3.1-7,7v12.3c0,0.2,0,0.5,0,0.7l50.6,4.9l49.3-4.9"/>
	<path class="st1" d="M87.9,31.9H0c0.4,3.5,3.4,6.2,7,6.3h86c3.5-0.1,6.5-2.7,6.9-6.3H87.9z"/>
	<g id="g3261">
		<g id="g3267">
			<path id="path3269" class="st2" d="M95.8,26.2c0-2.8-1.5-4.1-2.9-4.1c-1.1,0-3.2,0.9-3.2,4.2c0,4,2.9,4.1,3.2,4.1
				c1.1,0,2-0.5,2.7-1.3l0.1-0.1l-0.3-0.6l-0.1,0.1c-0.4,0.3-1,0.5-1.5,0.5c-1.4,0-1.7-1-1.7-2.7h3.8L95.8,26.2z M92,25.3
				c0-1.8,0.4-2.2,0.9-2.2c0.7,0,0.8,0.9,0.8,2.2H92z"/>
		</g>
		<g id="g3271">
			<path id="path3273" class="st2" d="M89.1,29.5c-0.3,0-0.6-0.3-0.5-0.6v-10h-3.4v0.7h0.5c0.2,0,0.7,0.2,0.7,0.5v2.8
				c-0.4-0.4-1-0.7-1.6-0.7c-1.2,0-3,1.2-3,4.3s1.8,4,2.8,4c0.7,0,1.3-0.2,1.8-0.7v0.5h3v-0.6H89.1z M86.3,24.4v3.9
				c-0.2,0.5-0.6,0.8-1,0.9c-0.9,0-1.1-1.5-1.1-2.7c0-2.6,0.6-3,1.1-3C85.8,23.4,86.2,24.3,86.3,24.4"/>
		</g>
		<g id="g3275">
			<path id="path3277" class="st2" d="M81.2,29.5c-0.3,0-0.5-0.2-0.6-0.5v-6.6h-2.3v6.5c0,0.3-0.3,0.5-0.6,0.5h-0.1v0.7h3.8v-0.7
				H81.2z"/>
		</g>
		<g id="g3279">
			<path id="path3281" class="st2" d="M75.3,22.4V23h0.2c0.2,0,0.4,0.1,0.5,0.2c0,0.1,0.1,0.1,0.1,0.2c0,0,0,0.1,0,0.1
				c-0.1,0.4-0.7,2.2-1,3.1c-0.2-0.9-0.7-2.8-0.8-3.1c0,0,0-0.1,0-0.1c0-0.1,0-0.1,0.1-0.2c0.1-0.1,0.3-0.2,0.5-0.2h0.2v-0.6h-3.7
				V23h0.1c0.2,0,0.4,0,0.5,0.2l0.3,1c0,0.1-0.7,1.8-0.9,2.4c-0.3-0.8-0.9-2.5-1.1-3c0-0.1-0.1-0.2-0.1-0.3c0-0.2,0.2-0.3,0.4-0.3
				c0,0,0,0,0,0h0.2v-0.7h-3.5V23l0.1,0c0.1,0.1,0.3,0.1,0.4,0.3c0.1,0.2,1.6,4.3,2.6,7l0,0.1H71c0,0,1.3-3.7,1.6-4.4
				c0.2,0.7,1.3,4.4,1.3,4.4h0.8l2.3-6.6c0.2-0.5,0.4-0.7,0.6-0.7h0.2v-0.6H75.3z"/>
		</g>
		<g id="g3283">
			<path id="path3285" class="st2" d="M67.2,29.5c-0.4,0-0.5-0.2-0.5-0.5v-4.5c0-1.2-0.7-2.4-2.1-2.4c-0.8,0-1.6,0.3-2.1,0.9v-0.7
				h-3.1V23h0.3c0,0,0.4,0.1,0.4,0.4v5.4c0,0.3-0.3,0.6-0.7,0.6h-0.1v0.6h3.9v-0.6h-0.1c-0.3,0-0.6-0.3-0.6-0.6c0,0,0,0,0,0v-4.5
				c0.2-0.5,0.6-0.9,1.1-0.9c0.5,0,0.7,0.3,0.7,1V29c0,0.2-0.3,0.4-0.5,0.4h-0.2v0.7h3.7v-0.7H67.2z"/>
		</g>
		<g id="g3287">
			<path id="path3289" class="st2" d="M55.5,22.1c-1.7,0-3.5,1.6-3.5,4.1c0,3.3,2.3,4.1,3.5,4.1c1.4,0,3.4-1.2,3.4-3.9
				C59,24,57.5,22.2,55.5,22.1 M56.5,26.5c0,2.9-0.7,2.9-1,2.9c-0.4,0-1.1,0-1.1-2.9s0.5-3.2,1-3.2C56,23.2,56.5,23.6,56.5,26.5"/>
		</g>
		<g id="g3291">
			<path id="path3293" class="st2" d="M51.5,29.5c-0.3,0-0.5-0.2-0.6-0.5v-6.6h-2.3v6.5c0,0.3-0.3,0.5-0.6,0.5h-0.1v0.7h3.8v-0.7
				H51.5z"/>
		</g>
		<g id="g3295">
			<path id="path3297" class="st2" d="M47.4,23.3v-0.9H46v-2.7h-0.6l-0.1,0.1c-0.6,1.1-1.4,2-2.4,2.9l-0.1,0v0.7h0.8v5.2
				c-0.1,0.9,0.6,1.7,1.6,1.8h0.1c0.7,0.1,1.4-0.2,1.8-0.8v-0.7l-0.2,0.1c-0.2,0.1-0.5,0.1-0.7,0c-0.2-0.1-0.3-0.3-0.3-0.5v-5.1
				H47.4z"/>
		</g>
		<g id="g3299">
			<path id="path3301" class="st2" d="M42.2,29c-0.1,0.1-0.2,0.1-0.2,0c-0.1,0-0.2-0.1-0.2-0.2v-4.5c0-1.3-1.3-2.1-3.1-2.1
				c-1.6,0-2.5,0.6-2.8,0.9l0,0v2.3h0.6l0-0.1c0.4-2,1.6-2.2,2.1-2.2c0.5,0,0.9,0.3,1,0.8v1.1c-2.7,0.8-4.1,1.9-4.1,3.5
				c0,1,0.8,1.8,1.7,1.8h0.2c0.8,0,1.5-0.3,2.1-0.8c0.2,0.5,0.8,0.9,1.3,0.8c0.6,0,1.2-0.3,1.5-0.8v-0.8L42.2,29z M38.6,28.9
				c-0.2,0-0.6-0.2-0.6-0.9c0.1-0.8,0.7-1.5,1.6-1.8v2.1C39.3,28.7,39,28.9,38.6,28.9"/>
		</g>
		<g id="g3303">
			<path id="path3305" class="st2" d="M31.5,18.8v0.7h0.5c0.4,0,0.7,0.4,0.7,0.8v5l-4.7-6.5h-3.4v0.7h0.3l0.8,1v8.4
				c0,0.6-0.8,0.7-1,0.7h-0.1v0.7h3.8v-0.7h-0.4c-0.4,0-0.8-0.4-0.8-0.6v-6.7l6.2,8.3h0.8V20.3c0-0.5,0.3-0.8,0.9-0.8h0.1v-0.7H31.5
				z"/>
		</g>
		<g id="g3307">
			<path id="path3309" class="st2" d="M49.7,18.7c-0.7,0-1.3,0.6-1.3,1.3c0,0.7,0.6,1.3,1.3,1.3c0.7,0,1.3-0.6,1.3-1.3
				C51,19.3,50.4,18.7,49.7,18.7L49.7,18.7L49.7,18.7"/>
		</g>
		<g id="g3311">
			<path id="path3313" class="st2" d="M79.4,18.7c-0.7,0-1.3,0.6-1.3,1.3c0,0.7,0.6,1.3,1.3,1.3c0.7,0,1.3-0.6,1.3-1.3
				C80.8,19.3,80.2,18.7,79.4,18.7C79.4,18.7,79.4,18.7,79.4,18.7L79.4,18.7"/>
		</g>
		<g id="g3315">
			<path id="path3317" class="st2" d="M19.5,31.9c0.5,0,1-0.2,1.3-0.5c0.4-0.4,0.6-0.8,0.6-1.4v-4.6c0-0.5-0.2-1-0.6-1.4l-2.6-2.6
				c-0.1-0.1-0.2-0.2-0.2-0.4v-2.8c0-1-0.8-1.8-1.7-1.8c0,0,0,0-0.1,0h-2c-1,0-1.8,0.8-1.8,1.8v0.2l0,0c0,0.1-0.1,0.2-0.2,0.2H12
				c-0.4,0-0.7,0.1-1,0.4c-0.2,0.1-0.3,0.3-0.4,0.5c-0.2,0-0.4,0-0.6,0c-3.2,0-5.8,2.6-5.8,5.8c0,0,0,0.1,0,0.1
				c0,3.2,2.7,4.6,2.8,4.7c0.2,0.1,0.3,0.3,0.3,0.5v1.7c0,0.5,0.2,1,0.6,1.3C8.3,33.8,8.7,34,9.2,34h7.1c0.5,0,0.9-0.1,1.2-0.4
				c0.3-0.3,0.5-0.8,0.5-1.3V32c0-0.1,0.1-0.2,0.2-0.2L19.5,31.9z"/>
		</g>
		<g id="g3319">
			<path id="path3321" class="st0" d="M17.6,28.9V28c0-0.2-0.2-0.4-0.4-0.4c-0.2,0-0.4,0.2-0.4,0.4l0,0v0.9c0,0.2,0.2,0.4,0.4,0.4
				C17.4,29.3,17.6,29.1,17.6,28.9 M20.2,24.6l-2.7-2.7c-0.2-0.2-0.3-0.4-0.3-0.7v-3c0-0.5-0.4-1-1-1h-1.9c-0.5,0-0.9,0.4-0.9,0.9
				l0,0v0.9c0,0.2-0.1,0.3-0.3,0.3l0,0h-1c-0.3,0-0.6,0.2-0.6,0.5c0,0.2-0.1,0.4-0.5,0.4h0c-2.6-0.5-5.2,1.2-5.7,3.9
				C4.8,26,5.6,27.9,7.1,29l0,0c0.2,0.1,0.4,0.1,0.6-0.1l0,0l0,0l2.8-4.1c0.2-0.3,0.5-0.4,0.8-0.5h3.2c0.2,0,0.3-0.1,0.3-0.3l0,0
				l0,0c0,0,0-0.1,0-0.1l0,0c-0.3-1.3-1.2-2.5-2.3-3.2c-0.2-0.1-0.2-0.3-0.1-0.4c0.1-0.1,0.2-0.2,0.3-0.2h1c0.4,0,0.7-0.3,0.7-0.7
				v-1.2c0-0.2,0.1-0.3,0.3-0.3c0,0,0,0,0,0h1.6c0.2,0,0.3,0.1,0.3,0.3c0,0,0,0,0,0l0,0v6.5c0,0.2,0.1,0.3,0.3,0.3l0,0h2.7
				c0.2,0,0.3,0.1,0.3,0.3l0,0l0,0v4.3c0,0.2-0.1,0.3-0.3,0.3c0,0,0,0,0,0H17c-0.4,0-0.7,0.3-0.7,0.7c0,0,0,0,0,0l0,0V32
				c0,0.2-0.1,0.3-0.3,0.3c0,0,0,0,0,0h-2.6V31c0-0.2-0.2-0.4-0.4-0.4c-0.2,0-0.4,0.2-0.4,0.4v1.3H9.4c-0.2,0-0.3-0.1-0.3-0.3
				c0,0,0,0,0,0l0,0v-2c0-0.2,0.1-0.3,0.3-0.3l0,0h3.7c0.2,0,0.3-0.2,0.3-0.2l2.6-3.8c0.1-0.1,0-0.3-0.1-0.4c0,0-0.1,0-0.1,0h-4.4
				c-0.2,0-0.2,0.1-0.3,0.2l-2.6,3.9c-0.1,0.2-0.2,0.4-0.2,0.7v2.1c0,0.5,0.5,1,1,1c0,0,0,0,0,0h7.3c0.4,0,0.7-0.3,0.7-0.7
				c0,0,0,0,0,0l0,0v-1.1c0-0.2,0.1-0.3,0.3-0.3c0,0,0,0,0,0h1.9c0.6,0,1-0.5,1.1-1v-4.6C20.5,25.1,20.4,24.8,20.2,24.6"/>
		</g>
	</g>
</g>
</svg>
