<?xml version="1.0" encoding="utf-8"?>
<!-- Generator: Adobe Illustrator 21.0.2, SVG Export Plug-In . SVG Version: 6.00 Build 0)  -->
<svg version="1.1" id="Layer_1" xmlns="http://www.w3.org/2000/svg" xmlns:xlink="http://www.w3.org/1999/xlink" x="0px" y="0px"
	 viewBox="0 0 100 50" style="enable-background:new 0 0 100 50;" xml:space="preserve">
<style type="text/css">
	.st0{fill:#003876;}
</style>
<g>
	<g>
		<path class="st0" d="M24.7,22.2c-1.7,0.6-2.3,2.3-2.3,2.3c-0.2,0.6-0.9,1.1-1.6,1.1h-3.3c-0.9,0-1.7-0.8-1.7-1.7
			c0-0.9,0.6-1.6,1.7-1.6l2.6,0l-3.8-3.8c-0.6-0.6-0.6-1.7,0-2.3c0.6-0.6,1.7-0.6,2.3,0l3.8,3.7v-2.6c0-0.9,0.7-1.7,1.7-1.7
			c0.9,0,1.6,0.8,1.6,1.7v3.3C25.7,21.3,25.3,21.9,24.7,22.2 M24.1,36.1c-0.9,0-1.6-0.6-1.6-1.6l0-2.6l-3.8,3.8
			c-0.6,0.6-1.7,0.6-2.3,0c-0.6-0.6-0.6-1.7,0-2.3l3.7-3.8h-2.6c-0.9,0-1.7-0.8-1.7-1.7c0-0.9,0.7-1.7,1.7-1.7h3.3
			c0.7,0,1.3,0.4,1.6,1c0.6,1.8,2.3,2.4,2.3,2.4c0.6,0.2,1.1,0.8,1.1,1.6v3.3C25.8,35.3,25,36.1,24.1,36.1z M34.7,29.5l-2.6,0
			l3.8,3.8c0.6,0.6,0.6,1.7,0,2.3c-0.6,0.6-1.7,0.6-2.3,0l-3.8-3.8v2.6c0,1-0.8,1.7-1.7,1.7c-0.9,0-1.7-0.8-1.7-1.7v-3.3
			c0-0.7,0.4-1.3,1.1-1.6c1.7-0.6,2.3-2.3,2.3-2.3c0.2-0.6,0.9-1.1,1.6-1.1h3.3c0.9,0,1.7,0.8,1.7,1.7
			C36.3,28.8,35.7,29.5,34.7,29.5z M34.7,25.5h-3.3c-0.7,0-1.3-0.4-1.6-1c-0.6-1.7-2.3-2.4-2.3-2.4c-0.6-0.2-1.1-0.8-1.1-1.6v-3.3
			c0-0.9,0.7-1.6,1.7-1.6c0.9,0,1.6,0.7,1.6,1.6l0,2.6l3.8-3.8c0.6-0.6,1.7-0.6,2.3,0c0.6,0.6,0.6,1.7,0,2.4l-3.8,3.7h2.6
			c0.9,0,1.7,0.8,1.7,1.7C36.4,24.8,35.6,25.5,34.7,25.5z"/>
	</g>
	<path class="st0" d="M51.7,36c-1.2-2.5-3.4-6.3-4.7-8.4h-1V36h-3.9V15.8h6.4c4.2,0,6.7,2,6.7,6.1c0,2.8-2,4.5-4.1,5.2
		c1.3,1.8,3.9,6.3,5.2,9H51.7 M48,18.9h-2v5.8h1.6c2.1,0,3.6-0.9,3.6-2.9C51.2,20.1,50,18.9,48,18.9z M64.5,36H58V15.8h6.9
		c3.9,0,6.5,1.9,6.5,5.3c0,2.4-1.6,3.7-3.1,4.3c2.1,0.5,3.8,2,3.8,4.6C72,33.6,69.3,36,64.5,36z M64.3,18.9h-2.4v5.3h2.2
		c1.7,0,3.1-0.9,3.1-2.7C67.2,19.7,66.2,18.9,64.3,18.9z M64.3,27.1h-2.4v5.8h2.5c2,0,3.5-0.8,3.5-2.9
		C67.9,28.1,66.5,27.1,64.3,27.1z M78.1,36.2c-1.8,0-4-0.3-5.1-0.6l0.9-3.6c0.8,0.4,2.6,0.9,4.2,0.9c2,0,3.4-0.9,3.4-2.6
		c0-1.5-0.9-2.2-3.4-3.2c-2.6-1-4.7-2.3-4.7-5.9c0-3.6,2.8-5.6,7.2-5.6c1.8,0,3.7,0.4,4.8,0.7l-0.9,3.5c-0.8-0.4-2.2-0.9-4-0.9
		c-2.1,0-3,0.8-3,2.2c0,1.4,1,1.9,3.3,2.9c3.1,1.3,5,2.6,5,6.1C85.9,33.9,82.8,36.2,78.1,36.2z"/>
</g>
</svg>
